<?xml version="1.0" encoding="utf-8"?>
<!-- Generator: Adobe Illustrator 25.2.3, SVG Export Plug-In . SVG Version: 6.00 Build 0)  -->
<svg version="1.1" id="Ebene_1" xmlns="http://www.w3.org/2000/svg" xmlns:xlink="http://www.w3.org/1999/xlink" x="0px" y="0px"
	 viewBox="0 0 141.7 276.7" style="enable-background:new 0 0 141.7 276.7;" xml:space="preserve">
<style type="text/css">
	.st0{fill:#FFFFFF;}
	.st1{fill:#EC1D26;}
	.st2{enable-background:new    ;}
</style>
<rect y="0" class="st0" width="141.7" height="276.7"/>
<rect x="6.8" y="141.7" class="st1" width="128.2" height="128.2"/>
<rect x="6.8" y="6.8" class="st1" width="128.2" height="128.2"/>
<path class="st0" d="M33.8,108H54V60.8H33.8V108z M43.9,32.4c-6.3,0-11.5,5.1-11.5,11.5s5.1,11.5,11.5,11.5s11.5-5.1,11.5-11.5l0,0
	C55.3,37.5,50.2,32.4,43.9,32.4z M87.7,33.8V54H108V33.8H87.7z M60.7,108H81V33.8H60.7V108z M87.7,81H108V60.8H87.7V81z"/>
<path class="st0" d="M29.2,168.8c6.2,0,10.8,2.6,10.8,9.7c0,6.7-4.7,9.6-10.8,9.6h-5v-19.3H29.2z M27.9,185.1h1
	c4.1,0,7.3-1.7,7.3-6.6c0-5.2-3.2-6.7-7.3-6.7h-1L27.9,185.1z"/>
<path class="st0" d="M43.4,168.8h10.8v3.2H47v4.6h6.6v3.1H47v5.1h7.3v3.2H43.4V168.8z"/>
<path class="st0" d="M67.9,172.3c-1.2-0.5-2.4-0.8-3.7-0.8c-1.9,0-3.2,0.9-3.2,2.2s0.6,1.9,3.3,3c3.4,1.3,4.8,2.9,4.8,5.8
	c0,3.7-2.7,6-6.9,6c-1.7,0-3.3-0.3-4.8-0.8l0.3-3.4c1.3,0.7,2.8,1.1,4.3,1.1c1.9,0,3.3-0.9,3.3-2.4s-0.8-2.2-3.5-3.3
	c-3.2-1.2-4.6-2.8-4.6-5.5c0-3.4,2.7-5.6,6.5-5.6c1.5,0,3,0.2,4.4,0.7L67.9,172.3z"/>
<path class="st0" d="M72.5,168.8h3.7v19.3h-3.7V168.8z"/>
<path class="st0" d="M94.8,172.8c-1.5-0.7-3.2-1.1-4.8-1.1c-3.9,0-6.4,2.6-6.4,6.7s2.3,6.7,6.3,6.7c0.7,0,1.5-0.1,2.2-0.3V180h-3.9
	v-3.1h7.4v10.4c-2,0.7-4.1,1-6.2,1c-5.6,0-9.8-3.8-9.8-9.9c0-6,4-9.8,10.4-9.8c1.7,0,3.5,0.2,5.1,0.8L94.8,172.8z"/>
<path class="st0" d="M111.5,168.8h3.3v19.3h-4.7l-4.7-9.4c-0.9-1.9-2.1-4.7-2.6-5.9h-0.1c0.1,1.2,0.1,4.7,0.1,6.4v9h-3.3v-19.3h4.9
	l4.6,9.5c0.7,1.4,1.9,4.3,2.5,5.6h0.1c-0.1-1.4-0.2-5.1-0.2-7.1L111.5,168.8z"/>
<path class="st0" d="M40.8,215.6h-4l-1.6-4.4h-7.6l-1.6,4.4h-3.8l7.2-19.3h4.2L40.8,215.6z M32.7,203.7c-0.4-1.2-1-3.4-1.3-4.4l0,0
	c-0.3,1-0.9,3.2-1.3,4.4l-1.5,4.5h5.7L32.7,203.7z"/>
<path class="st0" d="M54,202.6c-0.2-0.9-0.5-2.6-0.7-3.6l0,0c-0.1,1-0.4,2.7-0.6,3.6l-2.7,13h-4.7l-5.1-19.3h4l2.6,11.6
	c0.1,0.6,0.7,3.4,0.9,4.7l0,0c0.2-1.3,0.7-4.1,0.8-4.7l2.4-11.6h4.9l2.5,11.6c0.2,0.7,0.7,3.4,0.8,4.7l0,0c0.2-1.3,0.7-4,0.9-4.7
	l2.6-11.6h3.7l-4.9,19.3h-4.7L54,202.6z"/>
<path class="st0" d="M84.4,215.6h-4l-1.6-4.4h-7.6l-1.6,4.4h-3.8l7.2-19.3h4.2L84.4,215.6z M76.3,203.7c-0.4-1.2-1-3.4-1.2-4.4l0,0
	c-0.3,1-0.9,3.2-1.3,4.4l-1.5,4.5H78L76.3,203.7z"/>
<path class="st0" d="M86.9,196.2h5.3c4.5,0,7.5,1,7.5,5.1c0.1,2.3-1.5,4.3-3.8,4.6v0.1c1.3,0.4,1.8,1.1,2.3,2.6l2.8,7.1h-4.1l-2-5.5
	c-0.8-2-1.1-2.6-3.4-2.6h-1v8h-3.7L86.9,196.2L86.9,196.2z M90.6,204.6h1.1c2.9,0,4.2-0.8,4.2-2.7c0-2.1-1.6-2.6-4.2-2.6h-1.1V204.6
	z"/>
<path class="st0" d="M109.2,196.2c6.2,0,10.8,2.6,10.8,9.7c0,6.8-4.7,9.6-10.8,9.6h-5v-19.3H109.2z M107.9,212.6h1
	c4.1,0,7.3-1.7,7.3-6.6c0-5.2-3.2-6.7-7.3-6.7h-1V212.6z"/>
<g class="st2">
	<path class="st0" d="M22.5,242.6v-3.2c1.8-1.7,8.2-7,8.2-10.5c0-1.7-1.5-2.5-3.1-2.5s-3.1,0.7-4.3,1.5l-0.3-3.1
		c1.7-0.9,3.7-1.3,5.6-1.3c3.6,0,5.9,1.8,5.9,5.5c0,4-4,7.7-7.1,10.7H35v3L22.5,242.6L22.5,242.6z"/>
</g>
<g class="st2">
	<path class="st0" d="M38,233.3c0-4.7,1.4-9.8,6.5-9.8c5.5,0,6.6,5.4,6.6,9.8c0,4.4-1.1,9.7-6.6,9.7C38.7,243,38,237.2,38,233.3z
		 M47.3,233.3c0-2.4,0-7-2.8-7s-2.8,4.6-2.8,7s0,6.9,2.8,6.9C47.4,240.2,47.3,235.6,47.3,233.3z"/>
</g>
<g class="st2">
	<path class="st0" d="M53.7,242.6v-3.2c1.8-1.7,8.2-7,8.2-10.5c0-1.7-1.5-2.5-3.1-2.5s-3.1,0.7-4.3,1.5l-0.3-3.1
		c1.7-0.9,3.7-1.3,5.6-1.3c3.6,0,5.9,1.8,5.9,5.5c0,4-4,7.7-7.1,10.7h7.7v3L53.7,242.6L53.7,242.6z"/>
</g>
<g class="st2">
	<path class="st0" d="M69.4,242.6v-3.2c1.8-1.7,8.2-7,8.2-10.5c0-1.7-1.5-2.5-3.1-2.5s-3.1,0.7-4.3,1.5l-0.3-3.1
		c1.7-0.9,3.7-1.3,5.6-1.3c3.6,0,5.9,1.8,5.9,5.5c0,4-4,7.7-7.1,10.7H82v3L69.4,242.6L69.4,242.6z"/>
</g>
</svg>
