<?xml version="1.0" encoding="utf-8"?>
<!-- Generator: Adobe Illustrator 25.2.3, SVG Export Plug-In . SVG Version: 6.00 Build 0)  -->
<svg version="1.1" id="Ebene_1" xmlns="http://www.w3.org/2000/svg" xmlns:xlink="http://www.w3.org/1999/xlink" x="0px" y="0px"
	 viewBox="0 0 276.7 141.7" style="enable-background:new 0 0 276.7 141.7;" xml:space="preserve">
<style type="text/css">
	.st0{fill:#FFFFFF;}
	.st1{fill:#EC1D26;}
	.st2{enable-background:new    ;}
</style>
<rect y="0" class="st0" width="276.7" height="141.7"/>
<rect x="6.8" y="6.8" class="st1" width="128.2" height="128.2"/>
<path class="st0" d="M33.8,108H54V60.7H33.8V108z M43.9,32.4c-6.3,0-11.5,5.1-11.5,11.5s5.1,11.5,11.5,11.5s11.5-5.1,11.5-11.5v0
	C55.3,37.5,50.2,32.4,43.9,32.4z M87.7,33.7V54H108V33.7H87.7z M60.7,108H81V33.7H60.7V108z M87.7,81H108V60.7H87.7L87.7,81z"/>
<rect x="141.7" y="6.8" class="st1" width="128.2" height="128.2"/>
<path class="st0" d="M164.1,33.8c6.2,0,10.8,2.6,10.8,9.7c0,6.8-4.8,9.6-10.8,9.6h-5V33.8H164.1z M162.8,50.2h1
	c4.1,0,7.3-1.7,7.3-6.6c0-5.2-3.2-6.7-7.3-6.7h-1V50.2z"/>
<path class="st0" d="M178.3,33.8h10.8v3.2H182v4.6h6.6v3.1H182v5.1h7.3v3.2h-10.9L178.3,33.8z"/>
<path class="st0" d="M202.8,37.4c-1.2-0.5-2.4-0.8-3.7-0.8c-1.9,0-3.2,0.9-3.2,2.2s0.6,1.9,3.3,3c3.4,1.3,4.8,2.9,4.8,5.8
	c0,3.7-2.7,6-6.9,6c-1.6,0-3.3-0.3-4.8-0.8l0.3-3.4c1.3,0.7,2.8,1.1,4.3,1.1c1.9,0,3.3-0.9,3.3-2.4s-0.8-2.2-3.5-3.3
	c-3.2-1.2-4.6-2.8-4.6-5.5c0-3.4,2.6-5.6,6.6-5.6c1.5,0,3,0.2,4.4,0.7L202.8,37.4z"/>
<path class="st0" d="M207.4,33.8h3.7v19.3h-3.7V33.8z"/>
<path class="st0" d="M229.7,37.9c-1.5-0.7-3.2-1.1-4.9-1.1c-3.9,0-6.4,2.6-6.4,6.7s2.3,6.7,6.3,6.7c0.7,0,1.5-0.1,2.1-0.3V45H223v-3
	h7.4v10.3c-2,0.7-4.1,1-6.1,1c-5.6,0-9.8-3.8-9.8-9.9c0-6,4-9.8,10.4-9.8c1.7,0,3.4,0.2,5.1,0.7L229.7,37.9z"/>
<path class="st0" d="M246.4,33.8h3.3v19.3H245l-4.7-9.5c-0.9-1.9-2.1-4.7-2.6-5.9l0,0c0.1,1.2,0.1,4.7,0.1,6.4v9h-3.3V33.8h4.9
	l4.6,9.5c0.7,1.4,1.9,4.3,2.5,5.6h0.1c-0.1-1.4-0.2-5.1-0.2-7.1L246.4,33.8z"/>
<path class="st0" d="M175.6,80.6h-4l-1.6-4.5h-7.6l-1.6,4.5H157l7.2-19.3h4.2L175.6,80.6z M167.5,68.7c-0.4-1.2-1-3.4-1.3-4.4h-0.1
	c-0.3,1-0.9,3.2-1.3,4.4l-1.5,4.5h5.7L167.5,68.7z"/>
<path class="st0" d="M188.9,67.7c-0.2-0.9-0.6-2.6-0.7-3.6h-0.1c-0.1,1.1-0.4,2.7-0.6,3.6l-2.7,12.9h-4.7l-5-19.3h3.9l2.6,11.6
	c0.1,0.6,0.7,3.4,0.9,4.7h0.1c0.2-1.3,0.7-4.1,0.8-4.7l2.4-11.6h4.9l2.5,11.6c0.2,0.7,0.7,3.4,0.8,4.7h0.1c0.2-1.3,0.7-4,0.9-4.7
	l2.6-11.6h3.7l-4.9,19.3h-4.6L188.9,67.7z"/>
<path class="st0" d="M219.3,80.6h-4l-1.6-4.5h-7.6l-1.6,4.5h-3.8l7.2-19.3h4.2L219.3,80.6z M211.2,68.7c-0.4-1.2-1-3.4-1.3-4.4h-0.1
	c-0.3,1-0.9,3.2-1.3,4.4l-1.5,4.5h5.7L211.2,68.7z"/>
<path class="st0" d="M221.7,61.3h5.3c4.5,0,7.5,1,7.5,5.1c0.1,2.3-1.5,4.3-3.8,4.6l0,0c1.3,0.4,1.8,1.1,2.3,2.6l2.8,7h-4l-2-5.5
	c-0.8-2-1.1-2.5-3.4-2.5h-1v8h-3.7L221.7,61.3z M225.4,69.6h1.1c2.9,0,4.2-0.8,4.2-2.7c0-2.1-1.6-2.5-4.2-2.5h-1.1V69.6z"/>
<path class="st0" d="M244,61.3c6.2,0,10.8,2.6,10.8,9.7c0,6.8-4.8,9.6-10.8,9.6h-5V61.3H244z M242.7,77.7h1c4.1,0,7.3-1.7,7.3-6.7
	c0-5.2-3.2-6.7-7.3-6.7h-1V77.7z"/>
<g class="st2">
	<path class="st0" d="M157.8,108.3v-3.2c1.8-1.7,8.2-7,8.2-10.5c0-1.7-1.5-2.5-3.1-2.5c-1.6,0-3.1,0.7-4.3,1.5l-0.3-3.1
		c1.7-0.9,3.7-1.3,5.6-1.3c3.6,0,5.9,1.8,5.9,5.5c0,4-4,7.7-7.1,10.7h7.7v3H157.8z"/>
</g>
<g class="st2">
	<path class="st0" d="M173.3,99c0-4.7,1.4-9.8,6.5-9.8c5.5,0,6.6,5.4,6.6,9.8c0,4.4-1.1,9.7-6.6,9.7C174,108.7,173.3,102.9,173.3,99
		z M182.6,99c0-2.4,0-7-2.8-7c-2.8,0-2.8,4.6-2.8,7c0,2.4,0,6.9,2.8,6.9C182.7,105.9,182.6,101.3,182.6,99z"/>
</g>
<g class="st2">
	<path class="st0" d="M189,108.3v-3.2c1.8-1.7,8.2-7,8.2-10.5c0-1.7-1.5-2.5-3.1-2.5c-1.6,0-3.1,0.7-4.3,1.5l-0.3-3.1
		c1.7-0.9,3.7-1.3,5.6-1.3c3.6,0,5.9,1.8,5.9,5.5c0,4-4,7.7-7.1,10.7h7.7v3H189z"/>
</g>
<g class="st2">
	<path class="st0" d="M204.7,108.3v-3.2c1.8-1.7,8.2-7,8.2-10.5c0-1.7-1.5-2.5-3.1-2.5c-1.6,0-3.1,0.7-4.3,1.5l-0.3-3.1
		c1.7-0.9,3.7-1.3,5.6-1.3c3.6,0,5.9,1.8,5.9,5.5c0,4-4,7.7-7.1,10.7h7.7v3H204.7z"/>
</g>
</svg>
