<?xml version="1.0" encoding="utf-8"?>
<!-- Generator: Adobe Illustrator 26.5.0, SVG Export Plug-In . SVG Version: 6.00 Build 0)  -->
<svg version="1.1" id="Ebene_1" xmlns="http://www.w3.org/2000/svg" xmlns:xlink="http://www.w3.org/1999/xlink" x="0px" y="0px"
	 viewBox="0 0 276.72 141.73" style="enable-background:new 0 0 276.72 141.73;" xml:space="preserve">
<style type="text/css">
	.st0{fill:#FFFFFF;}
	.st1{fill-rule:evenodd;clip-rule:evenodd;fill:#EC1D26;}
</style>
<rect x="0" class="st0" width="276.72" height="141.73"/>
<rect x="6.75" y="6.75" class="st1" width="128.23" height="128.24"/>
<path class="st0" d="M33.79,107.99h20.25V60.74H33.79V107.99z M43.87,32.4c-6.34,0-11.47,5.14-11.47,11.47
	c0,6.34,5.14,11.47,11.47,11.47c6.34,0,11.47-5.14,11.47-11.47C55.34,37.53,50.2,32.4,43.87,32.4z M87.74,33.74v20.25h20.24V33.74
	H87.74z M60.74,107.99h20.25V33.74H60.74V107.99z M87.74,80.99h20.24V60.74H87.74V80.99z"/>
<rect x="141.73" y="6.75" class="st1" width="128.23" height="128.24"/>
<g>
	<g>
		<path class="st0" d="M164.07,33.85c6.18,0,10.79,2.6,10.79,9.73c0,6.75-4.74,9.57-10.79,9.57h-5v-19.3H164.07z M162.76,50.19h0.97
			c4.06,0,7.31-1.69,7.31-6.64c0-5.2-3.25-6.66-7.31-6.66h-0.97V50.19z"/>
		<path class="st0" d="M178.33,33.85h10.82v3.21h-7.18v4.65h6.6v3.12h-6.6v5.09h7.26v3.23h-10.9V33.85z"/>
		<path class="st0" d="M202.83,37.36c-1.44-0.61-2.59-0.83-3.72-0.83c-1.94,0-3.17,0.86-3.17,2.18c0,1.19,0.6,1.94,3.3,2.96
			c3.41,1.27,4.85,2.93,4.85,5.78c0,3.71-2.67,6.03-6.89,6.03c-1.75,0-3.33-0.28-4.85-0.83l0.34-3.4c1.57,0.8,3.01,1.11,4.3,1.11
			c1.94,0,3.33-0.86,3.33-2.41c0-1.47-0.76-2.24-3.54-3.32c-3.25-1.24-4.64-2.79-4.64-5.53c0-3.43,2.65-5.59,6.55-5.59
			c1.62,0,2.99,0.19,4.43,0.69L202.83,37.36z"/>
		<path class="st0" d="M207.39,33.85h3.69v19.3h-3.69V33.85z"/>
		<path class="st0" d="M229.71,37.86c-1.13-0.61-2.96-1.08-4.85-1.08c-3.88,0-6.39,2.57-6.39,6.66c0,4.01,2.28,6.69,6.31,6.69
			c0.76,0,1.57-0.08,2.15-0.28v-4.81h-3.9v-3.1h7.41v10.37c-1.96,0.72-4.06,1.02-6.16,1.02c-5.61,0-9.77-3.76-9.77-9.93
			c0-6,4.03-9.76,10.38-9.76c1.81,0,3.59,0.19,5.08,0.75L229.71,37.86z"/>
		<path class="st0" d="M246.37,33.85h3.33v19.3h-4.66l-4.69-9.46c-0.94-1.91-2.15-4.67-2.65-5.94h-0.05
			c0.08,1.19,0.13,4.73,0.13,6.39v9.01h-3.33v-19.3h4.92l4.61,9.54c0.68,1.38,1.94,4.29,2.49,5.64h0.05
			c-0.08-1.41-0.16-5.14-0.16-7.08V33.85z"/>
	</g>
	<g>
		<path class="st0" d="M175.65,80.61h-4.01l-1.6-4.45h-7.62l-1.6,4.45h-3.8l7.18-19.3h4.17L175.65,80.61z M167.53,68.72
			c-0.39-1.16-1.02-3.37-1.26-4.37h-0.05c-0.26,0.99-0.94,3.21-1.34,4.37l-1.52,4.51h5.68L167.53,68.72z"/>
		<path class="st0" d="M188.89,67.69c-0.18-0.88-0.55-2.57-0.68-3.62h-0.05c-0.13,1.05-0.42,2.71-0.6,3.62l-2.73,12.91h-4.66
			l-5.06-19.3h3.96l2.65,11.56c0.13,0.63,0.71,3.43,0.87,4.73h0.05c0.18-1.3,0.71-4.09,0.84-4.73l2.38-11.56h4.9l2.52,11.56
			c0.16,0.66,0.65,3.46,0.84,4.73h0.05c0.18-1.27,0.71-4.01,0.87-4.73l2.62-11.56h3.67l-4.9,19.3h-4.64L188.89,67.69z"/>
		<path class="st0" d="M219.28,80.61h-4.01l-1.6-4.45h-7.62l-1.6,4.45h-3.8l7.18-19.3H212L219.28,80.61z M211.16,68.72
			c-0.39-1.16-1.02-3.37-1.26-4.37h-0.05c-0.26,0.99-0.94,3.21-1.34,4.37l-1.52,4.51h5.69L211.16,68.72z"/>
		<path class="st0" d="M221.74,61.31h5.29c4.51,0,7.49,1.02,7.49,5.06c0,2.54-1.44,4.06-3.82,4.56v0.05
			c1.28,0.36,1.76,1.13,2.33,2.57l2.83,7.05h-4.06l-2.04-5.47c-0.76-2.02-1.1-2.54-3.35-2.54h-0.97v8.02h-3.7V61.31z M225.44,69.6
			h1.07c2.91,0,4.22-0.77,4.22-2.71c0-2.1-1.57-2.54-4.22-2.54h-1.07V69.6z"/>
		<path class="st0" d="M244.04,61.31c6.18,0,10.79,2.6,10.79,9.73c0,6.75-4.74,9.57-10.79,9.57h-5v-19.3H244.04z M242.73,77.65h0.97
			c4.06,0,7.31-1.69,7.31-6.64c0-5.2-3.25-6.66-7.31-6.66h-0.97V77.65z"/>
	</g>
</g>
<g>
	<path class="st0" d="M158.48,108.49v-3.22c1.79-1.73,8.3-7.18,8.3-10.7c0-1.76-1.57-2.58-3.13-2.58c-1.62,0-3.16,0.71-4.43,1.54
		l-0.3-3.19c1.73-0.88,3.74-1.38,5.69-1.38c3.66,0,6.02,1.84,6.02,5.61c0,4.07-4.1,7.81-7.23,10.89h7.84v3.02H158.48z"/>
	<path class="st0" d="M173.99,98.95c0-4.81,1.46-9.98,6.65-9.98c5.61,0,6.71,5.53,6.71,9.98c0,4.45-1.15,9.87-6.71,9.87
		C174.74,108.82,173.99,102.96,173.99,98.95z M183.51,98.95c0-2.47,0-7.12-2.86-7.12c-2.8,0-2.8,4.65-2.8,7.12
		c0,2.42-0.03,7.01,2.8,7.01C183.54,105.96,183.51,101.37,183.51,98.95z"/>
	<path class="st0" d="M189.83,108.49v-3.22c1.79-1.73,8.3-7.18,8.3-10.7c0-1.76-1.57-2.58-3.13-2.58c-1.62,0-3.16,0.71-4.43,1.54
		l-0.3-3.19c1.73-0.88,3.74-1.38,5.69-1.38c3.66,0,6.02,1.84,6.02,5.61c0,4.07-4.1,7.81-7.23,10.89h7.84v3.02H189.83z"/>
	<path class="st0" d="M204.82,101.39L212,89.3h4.78v12.35h2.45v2.86h-2.45v3.99h-3.68v-3.99h-8.28V101.39z M213.1,101.64v-8.33
		h-0.06l-4.76,8.33H213.1z"/>
</g>
</svg>
