<?xml version="1.0" encoding="UTF-8"?>
<svg id="Ebene_1" data-name="Ebene 1" xmlns="http://www.w3.org/2000/svg" viewBox="0 0 276.72 141.73">
  <defs>
    <style>
      .cls-1 {
        fill: #fff;
      }

      .cls-2 {
        fill: #ec1d26;
      }
    </style>
  </defs>
  <rect class="cls-1" x="0" width="276.72" height="141.73"/>
  <rect class="cls-2" x="6.75" y="6.75" width="128.23" height="128.24"/>
  <path class="cls-1" d="m33.79,107.99h20.25v-47.24h-20.25v47.24Zm10.08-75.59c-6.34,0-11.47,5.14-11.47,11.47s5.14,11.47,11.47,11.47,11.47-5.14,11.47-11.47-5.14-11.47-11.47-11.47Zm43.87,1.35v20.25h20.24v-20.25h-20.24Zm-27,74.24h20.25V33.74h-20.25v74.24Zm27-27h20.24v-20.25h-20.24v20.25Z"/>
  <rect class="cls-2" x="141.73" y="6.75" width="128.23" height="128.24"/>
  <g>
    <g>
      <path class="cls-1" d="m164.07,33.85c6.18,0,10.79,2.6,10.79,9.73,0,6.75-4.74,9.57-10.79,9.57h-5v-19.3h5Zm-1.31,16.34h.97c4.06,0,7.31-1.69,7.31-6.64,0-5.2-3.25-6.66-7.31-6.66h-.97v13.3Z"/>
      <path class="cls-1" d="m178.33,33.85h10.82v3.21h-7.18v4.65h6.6v3.12h-6.6v5.09h7.26v3.23h-10.9v-19.3Z"/>
      <path class="cls-1" d="m202.83,37.36c-1.44-.61-2.59-.83-3.72-.83-1.94,0-3.17.86-3.17,2.18,0,1.19.6,1.94,3.3,2.96,3.41,1.27,4.85,2.93,4.85,5.78,0,3.71-2.67,6.03-6.89,6.03-1.75,0-3.33-.28-4.85-.83l.34-3.4c1.57.8,3.01,1.11,4.3,1.11,1.94,0,3.33-.86,3.33-2.41,0-1.47-.76-2.24-3.54-3.32-3.25-1.24-4.64-2.79-4.64-5.53,0-3.43,2.65-5.59,6.55-5.59,1.62,0,2.99.19,4.43.69l-.29,3.15Z"/>
      <path class="cls-1" d="m207.39,33.85h3.69v19.3h-3.69v-19.3Z"/>
      <path class="cls-1" d="m229.71,37.86c-1.13-.61-2.96-1.08-4.85-1.08-3.88,0-6.39,2.57-6.39,6.66s2.28,6.69,6.31,6.69c.76,0,1.57-.08,2.15-.28v-4.81h-3.9v-3.1h7.41v10.37c-1.96.72-4.06,1.02-6.16,1.02-5.61,0-9.77-3.76-9.77-9.93s4.03-9.76,10.37-9.76c1.81,0,3.59.19,5.08.75l-.26,3.46Z"/>
      <path class="cls-1" d="m246.37,33.85h3.33v19.3h-4.66l-4.69-9.46c-.94-1.91-2.15-4.67-2.65-5.94h-.05c.08,1.19.13,4.73.13,6.39v9.01h-3.33v-19.3h4.92l4.61,9.54c.68,1.38,1.94,4.29,2.49,5.64h.05c-.08-1.41-.16-5.14-.16-7.08v-8.1Z"/>
    </g>
    <g>
      <path class="cls-1" d="m175.65,80.61h-4.01l-1.6-4.45h-7.62l-1.6,4.45h-3.8l7.18-19.3h4.16l7.28,19.3Zm-8.12-11.89c-.39-1.16-1.02-3.37-1.26-4.37h-.05c-.26.99-.94,3.21-1.34,4.37l-1.52,4.51h5.68l-1.52-4.51Z"/>
      <path class="cls-1" d="m188.89,67.69c-.18-.88-.55-2.57-.68-3.62h-.05c-.13,1.05-.42,2.71-.6,3.62l-2.73,12.91h-4.66l-5.06-19.3h3.96l2.65,11.56c.13.63.71,3.43.87,4.73h.05c.18-1.3.71-4.09.84-4.73l2.38-11.56h4.9l2.52,11.56c.16.66.65,3.46.84,4.73h.05c.18-1.27.71-4.01.87-4.73l2.62-11.56h3.67l-4.9,19.3h-4.64l-2.88-12.91Z"/>
      <path class="cls-1" d="m219.28,80.61h-4.01l-1.6-4.45h-7.62l-1.6,4.45h-3.8l7.18-19.3h4.16l7.28,19.3Zm-8.12-11.89c-.39-1.16-1.02-3.37-1.26-4.37h-.05c-.26.99-.94,3.21-1.34,4.37l-1.52,4.51h5.69l-1.52-4.51Z"/>
      <path class="cls-1" d="m221.74,61.31h5.29c4.51,0,7.49,1.02,7.49,5.06,0,2.54-1.44,4.06-3.82,4.56v.05c1.28.36,1.76,1.13,2.33,2.57l2.83,7.05h-4.06l-2.04-5.47c-.76-2.02-1.1-2.54-3.35-2.54h-.97v8.02h-3.7v-19.3Zm3.7,8.29h1.07c2.91,0,4.22-.77,4.22-2.71,0-2.1-1.57-2.54-4.22-2.54h-1.07v5.25Z"/>
      <path class="cls-1" d="m244.04,61.31c6.18,0,10.79,2.6,10.79,9.73,0,6.75-4.74,9.57-10.79,9.57h-5v-19.3h5Zm-1.31,16.34h.97c4.06,0,7.31-1.69,7.31-6.64,0-5.2-3.25-6.66-7.31-6.66h-.97v13.3Z"/>
    </g>
  </g>
  <g>
    <path class="cls-1" d="m158.73,90.56c1.51-.7,3.54-1.11,5.61-1.11,3.48,0,6.45,1.75,6.45,5.45,0,2.38-1.11,4.51-4.59,7.77-1.59,1.48-2.75,2.35-3.75,3.02v.05c1.7-.05,3.91-.08,5.59-.08h3.16v2.94h-12.85v-3.13c6.05-4.91,8.48-7.48,8.48-10.18,0-2.05-1.48-2.89-3.37-2.89-1.38,0-2.83.4-4.35,1.27l-.38-3.13Z"/>
    <path class="cls-1" d="m187.51,99.14c0,6.1-2,9.8-6.86,9.8s-6.94-3.64-6.94-9.58c0-6.72,2.24-9.91,7.07-9.91,4.45,0,6.72,3.24,6.72,9.69Zm-9.99-.11c0,4.75,1.11,7.13,3.13,7.13s3.08-2.38,3.08-6.94-1.11-6.99-3.1-6.99-3.1,2.3-3.1,6.8Z"/>
    <path class="cls-1" d="m190.02,90.56c1.51-.7,3.54-1.11,5.61-1.11,3.48,0,6.45,1.75,6.45,5.45,0,2.38-1.11,4.51-4.59,7.77-1.59,1.48-2.75,2.35-3.75,3.02v.05c1.7-.05,3.91-.08,5.59-.08h3.16v2.94h-12.85v-3.13c6.05-4.91,8.48-7.48,8.48-10.18,0-2.05-1.48-2.89-3.37-2.89-1.38,0-2.83.4-4.35,1.27l-.38-3.13Z"/>
    <path class="cls-1" d="m217.38,92.61h-7.88l-.11,4.13c.78-.16,1.3-.19,2.08-.19,3.91,0,6.59,2.24,6.59,5.86,0,4.02-3.05,6.53-7.83,6.53-1.4,0-2.86-.16-4.35-.57l.05-3.18c1.32.57,2.62.84,4,.84,2.59,0,4.35-1.16,4.35-3.38s-1.65-3.4-4.51-3.4c-1.21,0-2.46.22-3.7.62l.13-10.09h11.17v2.83Z"/>
  </g>
</svg>