<?xml version="1.0" encoding="UTF-8"?><svg id="Ebene_1" xmlns="http://www.w3.org/2000/svg" xmlns:xlink="http://www.w3.org/1999/xlink" viewBox="0 0 170.5 98.29"><defs><style>.cls-1{clip-path:url(#clippath);}.cls-2{fill:none;}.cls-2,.cls-3,.cls-4,.cls-5,.cls-6,.cls-7,.cls-8,.cls-9,.cls-10{stroke-width:0px;}.cls-11{clip-path:url(#clippath-1);}.cls-12{clip-path:url(#clippath-4);}.cls-13{clip-path:url(#clippath-3);}.cls-14{clip-path:url(#clippath-2);}.cls-15{clip-path:url(#clippath-5);}.cls-3{fill:url(#Unbenannter_Verlauf_5);}.cls-4{fill:url(#Unbenannter_Verlauf_6);}.cls-5{fill:url(#Unbenannter_Verlauf_4);}.cls-6{fill:url(#Unbenannter_Verlauf_3);}.cls-7{fill:url(#Unbenannter_Verlauf_2);}.cls-8{fill:#12120d;}.cls-9{fill:#fff;}.cls-10{fill:#e7000e;}</style><clipPath id="clippath"><path class="cls-2" d="m43.04,52.52c-.38-.12-.69-.32-.91-.6-.21-.29-.33-.65-.32-1.08,0-.43.12-.89.33-1.36.21-.46.51-.93.89-1.38.37-.45.82-.87,1.31-1.25.49-.38,1.04-.71,1.61-.98.57-.26,1.12-.43,1.63-.51.51-.08.97-.06,1.36.03.39.1.72.28.95.55.23.27.37.62.39,1.05.02.43-.08.89-.28,1.37-.2.48-.51.96-.89,1.43-.38.47-.84.91-1.35,1.31-.51.4-1.08.74-1.68,1.01-.6.27-1.16.43-1.68.5-.18.02-.35.03-.51.03-.31,0-.6-.04-.85-.12m5.27-12.14c-1.04.18-2.17.54-3.34,1.09-1.17.55-2.28,1.23-3.29,2.01-1.01.77-1.92,1.64-2.69,2.55-.77.91-1.41,1.87-1.86,2.81-.45.96-.72,1.91-.76,2.8-.03.9.18,1.66.59,2.27.41.61,1.04,1.05,1.82,1.31.79.26,1.75.34,2.83.21,1.09-.13,2.24-.76,3.51-1.32,1.27-.56,2.25-1.37,3.35-2.22,1.1-.85,2.07-1.75,2.87-2.75.81-.99,1.61-1.75,2.1-2.73.58-1.18.86-2.03.79-2.92-.06-.88-.52-1.58-1.03-2.11-.5-.53-1.24-.82-2.07-1-.41-.09-.86-.13-1.34-.13s-.97.04-1.48.13"/></clipPath><radialGradient id="Unbenannter_Verlauf_6" cx=".58" cy="110.43" fx=".58" fy="110.43" r="1" gradientTransform="translate(38.1 1792.82) scale(15.86 -15.86)" gradientUnits="userSpaceOnUse"><stop offset="0" stop-color="#fff"/><stop offset=".18" stop-color="#fbe2d8"/><stop offset=".47" stop-color="#f6af93"/><stop offset=".57" stop-color="#f28976"/><stop offset=".78" stop-color="#ec3f3e"/><stop offset=".93" stop-color="#e8111b"/><stop offset="1" stop-color="#e7000e"/></radialGradient><clipPath id="clippath-1"><path class="cls-2" d="m10.67,28.77v-.08s0,.05,0,.08m14.07-17.67c-1.18.55-1.82.88-2.91,1.56-3.28,2.04-5.24,3.12-7.64,6.06-.96,1.18-1.53,1.86-2.21,3.23-.33.68-.73,1.8-.73,1.8l-.17,1.26-.26,1.71-.13,1.53-.02.44c0-.1.01-.21.02-.32.01-.14.03-.27.05-.41.02-.14.05-.28.08-.43.03-.14.07-.29.1-.44.39-1.51,1.06-3.09,2.13-4.87,1.18-1.96,2.07-2.96,3.69-4.54,1.61-1.57,2.68-2.72,4.63-4.14,1.19-.87,4.07-2.69,5.78-2.92.12-.02.15-.02.11-.02-.19,0-1.82.17-2.53.51"/></clipPath><radialGradient id="Unbenannter_Verlauf_2" cx=".6" cy="110.53" fx=".6" fy="110.53" r="1" gradientTransform="translate(2.46 1721.03) scale(15.36 -15.36)" gradientUnits="userSpaceOnUse"><stop offset="0" stop-color="#fff"/><stop offset="0" stop-color="#fefefe"/><stop offset=".06" stop-color="#fce6dd"/><stop offset=".12" stop-color="#f9d2c2"/><stop offset=".19" stop-color="#f8c2ad"/><stop offset=".27" stop-color="#f6b79e"/><stop offset=".36" stop-color="#f6b095"/><stop offset=".5" stop-color="#f6af93"/><stop offset=".59" stop-color="#f28976"/><stop offset=".79" stop-color="#ec3f3e"/><stop offset=".93" stop-color="#e8111b"/><stop offset="1" stop-color="#e7000e"/></radialGradient><clipPath id="clippath-2"><path class="cls-2" d="m11.84,43.2l-.12-.19c.04.06.08.13.12.19M45.68,13.99c-.09-.1-.17-.19-.27-.28l.27.28Zm-11.63-4.47c-1.27.27-2.11.57-3.55,1.18-1.42.61-2.92,1.38-4.47,2.33-2.15,1.32-4.2,2.85-6.08,4.5-1.89,1.65-3.62,3.44-5.13,5.27-1.52,1.84-2.83,3.74-3.82,5.59-1.01,1.88-1.43,3.74-1.72,5.45-.05.33,0,.65-.03.96,0,0,0,.01,0,.02v.04c0,.45.29,2.31.61,3.67.15.61.22.96.42,1.56.24.7.75,1.74.75,1.74l.25.44.45.73c-.16-.27-.29-.56-.4-.86-.14-.38-.24-.78-.31-1.21-.07-.43-.1-.88-.1-1.36,0-.48.04-.98.12-1.5.27-1.85.98-3.83,2.02-5.84,1.02-1.97,2.38-3.99,3.96-5.93,1.57-1.93,3.38-3.81,5.36-5.54,1.97-1.73,4.13-3.33,6.38-4.69,1.83-1.1,3.6-1.98,5.27-2.62,1.7-.65,3.3-1.08,4.76-1.27,1.49-.19,2.84-.15,4,.14,1.04.26,1.93.72,2.62,1.39l-.98-1.02-1.32-1.17-.67-.52-1.51-.6c-.82-.26-1.83-.64-2.92-.79-.68-.1-1.6-.22-2.52-.22-.5,0-.99.04-1.44.13"/></clipPath><radialGradient id="Unbenannter_Verlauf_3" cx=".25" cy="108.62" fx=".25" fy="108.62" r="1" gradientTransform="translate(25.01 4067.82) scale(37.36 -37.36)" gradientUnits="userSpaceOnUse"><stop offset="0" stop-color="#fff"/><stop offset=".05" stop-color="#fdf1ec"/><stop offset=".2" stop-color="#f9cdbc"/><stop offset=".31" stop-color="#f6b79e"/><stop offset=".38" stop-color="#f6af93"/><stop offset=".45" stop-color="#f5a88e"/><stop offset=".55" stop-color="#f49781"/><stop offset=".66" stop-color="#f17b6c"/><stop offset=".79" stop-color="#ee544e"/><stop offset=".92" stop-color="#e92228"/><stop offset="1" stop-color="#e7000e"/><stop offset="1" stop-color="#1f1f1c"/></radialGradient><clipPath id="clippath-3"><path class="cls-2" d="m22.26,52.76l-.55-.2c.18.07.36.14.55.2M42.49,14.52c-1.72.18-3.61.67-5.61,1.46-1.97.78-4.05,1.87-6.18,3.25-2.37,1.54-4.6,3.32-6.62,5.23-2.02,1.91-3.84,3.97-5.39,6.08-1.56,2.12-2.86,4.3-3.8,6.42-.95,2.16-1.54,4.27-1.65,6.22-.04.74-.02,1.42.07,2.06.09.64.25,1.23.47,1.77.22.54.51,1.03.86,1.47.35.44.76.82,1.23,1.14l1.62,1.03,1.54.82,1.71.75.98.35c-.51-.21-.98-.47-1.41-.78-.56-.41-1.04-.92-1.41-1.51-.37-.58-.66-1.25-.84-2-.18-.74-.26-1.55-.23-2.45.05-1.84.55-3.83,1.4-5.86.84-2,2.01-4.04,3.45-6.03,1.42-1.97,3.11-3.9,4.99-5.68,1.88-1.78,3.96-3.43,6.18-4.85,2.22-1.41,4.39-2.47,6.42-3.18,2.07-.72,4.77-1.24,6.49-1.23,1.75.01,3.28.41,4.48,1.2,1.22.81,1.46,2.17,1.86,3.82l.64-.14-2.06-5.44-.53-1.19c-.72-1.2-1.9-1.99-3.24-2.48-.79-.28-1.94-.39-3.11-.39-.79,0-1.6.05-2.3.12"/></clipPath><radialGradient id="Unbenannter_Verlauf_4" cx=".2" cy="108.38" fx=".2" fy="108.38" r="1" gradientTransform="translate(28.79 4941.1) scale(45.42 -45.42)" gradientUnits="userSpaceOnUse"><stop offset="0" stop-color="#fff"/><stop offset=".02" stop-color="#fef8f6"/><stop offset=".15" stop-color="#fad8cb"/><stop offset=".26" stop-color="#f8c1ac"/><stop offset=".35" stop-color="#f6b499"/><stop offset=".42" stop-color="#f6af93"/><stop offset=".52" stop-color="#f49878"/><stop offset="1" stop-color="#e7000e"/></radialGradient><clipPath id="clippath-4"><path class="cls-2" d="m38.98,55.38c.28-.1.57-.2.86-.32l-.86.32Zm.86-.32h.02s.06-.03.06-.03c-.02,0-.05.02-.08.03m.08-.03c.08-.03.16-.06.25-.1l-.25.1Zm4.05-28.65c-1.99.66-4.12,1.66-6.28,3-2.15,1.33-4.16,2.89-5.96,4.58-1.8,1.68-3.41,3.5-4.75,5.36-1.35,1.87-2.44,3.79-3.2,5.66-.76,1.9-1.18,3.75-1.15,5.45.01,1.06.2,2.01.54,2.82.34.83.84,1.53,1.48,2.09.65.57,1.42,1.03,2.36,1.24.96.22,1.92.37,3.13.43h.25s1.81-.12,1.81-.12l1.77-.22.88-.15,1.61-.36,1.56-.45.43-.14.54-.2c-1.2.41-2.34.66-3.39.76-1.38.13-2.61,0-3.64-.36-1.02-.36-1.84-.95-2.42-1.77-.57-.8-.91-1.81-.97-3.03-.06-1.36.23-2.85.8-4.37.57-1.5,1.42-3.05,2.49-4.56,1.06-1.5,2.35-2.97,3.79-4.32,1.45-1.35,3.07-2.6,4.8-3.66,1.75-1.06,3.46-1.84,5.06-2.34,1.62-.51,3.15-.72,4.49-.65,1.36.07,2.54.43,3.46,1.1.93.67,1.59,1.66,1.88,2.95.14-.4,1-.69,1.12-1.1.11-.4.21-.81.29-1.22.08-.41.33-2.66.35-3.07-.09-.24-.06-.46-.19-.7-.61-1.16-1.24-1.6-2.25-2.28-1.16-.78-3.38-1.29-5.09-1.32-.08,0-.16,0-.25,0-1.62,0-3.43.32-5.35.95"/></clipPath><radialGradient id="Unbenannter_Verlauf_5" cx=".25" cy="108.65" fx=".25" fy="108.65" r="1" gradientTransform="translate(36.07 3997.84) scale(36.55 -36.55)" gradientUnits="userSpaceOnUse"><stop offset="0" stop-color="#fff"/><stop offset=".18" stop-color="#fbe2d8"/><stop offset=".47" stop-color="#f6af93"/><stop offset=".57" stop-color="#f28976"/><stop offset=".78" stop-color="#ec3f3e"/><stop offset=".93" stop-color="#e8111b"/><stop offset="1" stop-color="#e7000e"/><stop offset="1" stop-color="#1f1f1c"/></radialGradient><clipPath id="clippath-5"><rect class="cls-2" x="9.24" y="9.22" width="48.21" height="48.18"/></clipPath></defs><polygon class="cls-9" points="0 0 0 98.29 170.5 98.29 170.5 0 0 0 0 0"/><path class="cls-8" d="m73.63,89.04l2.03-9.04h-1.65l-1.43,6.55h-.04l-1.98-6.55h-1.29l-1.98,6.55h-.04l-1.42-6.55h-1.65l2.09,9.04h1.8l1.82-6.27h.04l1.88,6.27h1.8Zm6.27-11.17v-1.94h-2.05v1.94h2.05Zm-.17,11.17v-9.04h-1.71v9.04h1.71Zm10.07,0v-6.27c0-1.58-.63-2.98-2.43-2.98-1.43,0-2.36.85-2.87,2.15h-.04v-1.94h-1.71v9.04h1.71v-3.84c0-1.33.72-3.7,2.39-3.7.97,0,1.16.65,1.22,1.48.02.38.02.76.02,1.12v4.94h1.71Zm9.86,0v-6.27c0-1.58-.63-2.98-2.43-2.98-1.43,0-2.36.85-2.87,2.15h-.04v-1.94h-1.71v9.04h1.71v-3.84c0-1.33.72-3.7,2.39-3.7.97,0,1.16.65,1.22,1.48.02.38.02.76.02,1.12v4.94h1.71Zm8.91-1.44c-.55.21-1.1.32-1.71.32-2.28,0-3.32-2.03-3.32-4.07h5.24v-.44c0-2.07-1.06-3.63-3.27-3.63-2.6,0-3.69,1.82-3.69,4.29,0,2.96,1.25,5.17,4.48,5.17.78,0,1.5-.13,2.26-.3v-1.35h0Zm-4.96-4.88c0-.17.06-.38.13-.55.3-.68.93-1.04,1.67-1.04.95,0,1.65.63,1.65,1.6h-3.46Zm9.01,6.33v-3.84c0-1.98.65-3.55,2.83-3.55v-1.86c-1.35,0-2.36.76-2.79,2.03h-.04v-1.82h-1.71v9.04h1.71Zm17.59,0v-1.33h-5.47c2.28-1.98,5.38-4.33,5.38-7.64,0-2.18-1.69-3.29-3.72-3.29s-3.67.82-3.91,2.98h2.09c0-1.08.8-1.65,1.81-1.65,1.16,0,1.84.67,1.84,1.82,0,2.47-3.93,6.19-5.76,7.71v1.39h7.75Zm6.54.21c3.61,0,4.43-3.25,4.43-6.23s-.82-6.23-4.43-6.23-4.39,3.27-4.39,6.23.78,6.23,4.39,6.23h0Zm0-1.33c-2.38,0-2.49-3.19-2.49-4.9s.11-4.9,2.49-4.9,2.53,3.17,2.53,4.9-.11,4.9-2.53,4.9h0Zm13.51,1.12v-1.33h-5.47c2.28-1.98,5.38-4.33,5.38-7.64,0-2.18-1.69-3.29-3.72-3.29s-3.67.82-3.91,2.98h2.09c0-1.08.8-1.65,1.8-1.65,1.16,0,1.84.67,1.84,1.82,0,2.47-3.93,6.19-5.76,7.71v1.39h7.75Zm2.68-2.64c.15,2.17,2.13,2.85,4.03,2.85,2.34,0,4.16-1.2,4.16-3.71,0-2.34-1.29-3.88-3.69-3.88-.76,0-1.48.15-2.09.59l.17-3.93h4.71v-1.33h-6.44l-.34,6.86h1.88c.44-.67,1.01-.86,1.77-.86,1.42,0,2.13.95,2.13,2.3,0,1.63-.55,2.62-2.28,2.62-.91,0-1.92-.51-1.92-1.52h-2.09Z"/><path class="cls-10" d="m40.21,89.04v-13.11h-1.71v5.32h-.04c-.36-.97-1.42-1.46-2.41-1.46-2.58,0-3.19,2.83-3.19,4.88s.59,4.58,3.1,4.58c1.03,0,2.15-.57,2.51-1.6h.04v1.39h1.71Zm-3.67-1.12c-1.65,0-1.79-2.2-1.79-3.4s.15-3.4,1.77-3.4,1.98,2.13,1.98,3.38c0,1.16-.42,3.42-1.96,3.42h0Zm9.82,1.33c2.89,0,3.99-2.09,3.99-4.73s-1.1-4.73-3.99-4.73-4.01,2.09-4.01,4.73,1.1,4.73,4.01,4.73h0Zm0-1.33c-1.88,0-2.11-1.96-2.11-3.4s.23-3.4,2.11-3.4,2.09,1.98,2.09,3.4-.23,3.4-2.09,3.4h0Zm10.94-.13c-.28.1-.61.13-.91.13-1.2,0-1.44-.76-1.44-1.77v-4.83h2.51v-1.33h-2.51v-3.19l-1.71,1.06v2.13h-1.61v1.33h1.61v5.72c0,1.73,1.12,2.2,2.72,2.2.46,0,.91-.04,1.35-.13v-1.33h0Z"/><path class="cls-8" d="m10.95,89.04v-3.84c0-1.98.65-3.55,2.83-3.55v-1.86c-1.35,0-2.36.76-2.79,2.03h-.04v-1.82h-1.71v9.04h1.71Zm10.72-1.44c-.55.21-1.1.32-1.71.32-2.28,0-3.32-2.03-3.32-4.07h5.24v-.44c0-2.07-1.06-3.63-3.27-3.63-2.6,0-3.69,1.82-3.69,4.29,0,2.96,1.25,5.17,4.48,5.17.78,0,1.5-.13,2.26-.3v-1.35h0Zm-4.96-4.88c0-.17.06-.38.13-.55.3-.68.93-1.04,1.67-1.04.95,0,1.65.63,1.65,1.6h-3.46Zm14,6.33v-13.11h-1.71v5.32h-.04c-.36-.97-1.43-1.46-2.41-1.46-2.58,0-3.19,2.83-3.19,4.88s.59,4.58,3.1,4.58c1.03,0,2.15-.57,2.51-1.6h.04v1.39h1.71Zm-3.67-1.12c-1.65,0-1.79-2.2-1.79-3.4s.15-3.4,1.77-3.4,1.98,2.13,1.98,3.38c0,1.16-.42,3.42-1.96,3.42h0Z"/><g class="cls-1"><rect class="cls-4" x="36.34" y="40.24" width="17.96" height="15.32"/></g><g class="cls-11"><rect class="cls-7" x="10.67" y="10.59" width="16.64" height="18.18"/></g><g class="cls-14"><rect class="cls-6" x="9.22" y="9.39" width="36.46" height="33.81"/></g><g class="cls-13"><rect class="cls-5" x="13.19" y="14.4" width="40.55" height="38.37"/></g><g class="cls-12"><rect class="cls-3" x="22.6" y="25.44" width="34.5" height="31.58"/></g><g class="cls-15"><path class="cls-10" d="m35.51,12.34c-.23.77-.76,1.6-1.52,2.44-.77.85-1.77,1.71-2.93,2.52-1.17.82-2.5,1.59-3.92,2.26-1.42.67-2.91,1.24-4.41,1.66-1.49.42-2.83.64-3.98.69-1.14.05-2.09-.08-2.8-.35-.7-.27-1.18-.7-1.38-1.25-.2-.54-.15-1.22.2-2,.11-.24.24-.48.39-.72.15-.24.32-.48.52-.72.19-.24.41-.48.64-.73.23-.24.48-.48.74-.72l.71-.62.7-.56.66-.5.66-.46.65-.43.63-.38.63-.36s-1.27.97-1.89,1.76c-.35.44-.64.83-.8,1.21-.16.38-.18.71-.06.96.12.26.36.46.72.58.36.12.83.17,1.4.13.57-.03,1.22-.15,1.95-.36.73-.21,1.45-.49,2.14-.82.69-.33,1.34-.7,1.91-1.09.57-.39,1.07-.81,1.46-1.22.39-.41.66-.82.8-1.19.13-.38.11-.69-.04-.93-.15-.24-.42-.42-.8-.52-.38-.1-.84-.08-1.4.03-.54.1-1.17.15-1.87.36-.45.13-.71.23-1.14.43,1.32-.68,2.11-1.01,3.53-1.45.92-.29,1.55-.46,2.39-.61.98-.18,1.81-.16,2.56-.1.75.06,1.39.22,1.88.47.5.25.86.59,1.05,1.03.19.44.21.96.02,1.57"/><path class="cls-10" d="m53.96,45.2s-.33.89-.62,1.41c-.27.49-.81,1.18-.81,1.18,0,0-.18.23-.3.39-.33.42-.88,1.05-.88,1.05l-.73.8c-.76.78-1.62,1.54-2.57,2.25-.96.72-2,1.38-3.1,1.98-1.11.61-2.27,1.14-3.48,1.59-1.2.45-2.44.82-3.68,1.08-.25.05-.49.1-.73.14-.24.04-.48.08-.71.11-.24.03-.47.06-.69.09-.23.02-.45.04-.68.06l-1.36.06h-.3s-1.45-.04-1.45-.04l-1.48-.13s-.25-.03-.41-.05c-.62-.08-.96-.14-1.57-.27-.62-.13-1.57-.38-1.57-.38l-.79-.26-.22-.11c.56.22,1.29.42,2.01.54.73.11,1.51.17,2.33.19.83,0,1.7-.03,2.61-.13.92-.1,1.87-.25,2.86-.46,2.26-.48,4.51-1.23,6.64-2.18,2.13-.95,4.13-2.09,5.93-3.36,1.78-1.26,3.35-2.64,4.61-4.07.44-.5.8-.95,1.17-1.5.01-.02,0,.02,0,.02"/><path class="cls-10" d="m40.96,10.41l1.59.6,1.57.72.55.29c.44.23.82.5,1.14.81.32.31.59.66.78,1.04.2.39.32.81.37,1.28.05.47.03.97-.08,1.51-.29,1.43-1.12,2.97-2.4,4.54-1.3,1.59-3.05,3.2-5.13,4.72-2.1,1.53-4.51,2.97-7.09,4.2-2.59,1.23-5.33,2.25-8.07,2.96-2.45.63-4.67.95-6.61,1-1.9.04-3.52-.18-4.79-.64-1.24-.45-2.15-1.13-2.68-2-.52-.85-.67-1.89-.42-3.08l.11-.51.45-1.68.57-1.63.58-1.38.53-1.12-.09.23s-.02.05-.02.05c-.51,1.12-.61,2.1-.35,2.9.27.83.92,1.48,1.91,1.92,1,.45,2.35.67,3.99.64,1.66-.03,3.6-.32,5.76-.9,2.18-.59,4.36-1.41,6.42-2.39,2.06-.98,3.99-2.11,5.67-3.32,1.67-1.2,3.1-2.46,4.17-3.7,1.06-1.23,1.78-2.44,2.06-3.57.14-.58.16-1.11.07-1.58-.09-.47-.29-.88-.58-1.24-.3-.35-.69-.65-1.16-.89-.32-.16-.68-.3-1.07-.41l-.59-.16c.25.04.39.06.59.11,0,0,.57.14.93.24.52.15,1.32.43,1.32.43"/><path class="cls-10" d="m51.5,17.49l1.18,1.48,1.07,1.59.48.81c.14.25.26.52.36.79.1.28.18.57.23.87.05.3.09.62.09.95,0,.33-.01.67-.06,1.02-.23,1.82-1.14,3.77-2.59,5.74-1.48,2.01-3.53,4.02-5.99,5.91-2.49,1.91-5.37,3.67-8.49,5.16-3.12,1.49-6.43,2.69-9.76,3.47-2.37.56-4.57.86-6.55.93-1.96.07-3.7-.08-5.19-.44-1.47-.35-2.69-.89-3.64-1.59-.93-.69-1.59-1.54-1.96-2.53l-.38-1.08-.51-1.84-.36-1.86-.07-.52-.1-1.05c-.01-.1,0,0,0,0,.13,1,.55,1.87,1.24,2.6.78.81,1.89,1.44,3.3,1.86,1.44.42,3.18.62,5.19.56,2.04-.06,4.33-.38,6.84-1,3.13-.77,6.26-1.92,9.21-3.32,2.95-1.41,5.69-3.06,8.06-4.84,2.35-1.76,4.3-3.62,5.74-5.48,1.41-1.82,2.31-3.62,2.57-5.28.07-.47.09-.91.07-1.33-.03-.42-.1-.81-.22-1.18-.12-.37-.28-.71-.49-1.04-.12-.2-.27-.38-.42-.56h0s.98,1.03.98,1.03l.15.17Z"/><path class="cls-10" d="m57.33,31.34c.14,1.5.19,2.38-.05,3.87-.37,2.3-.97,3.66-2.26,5.53-1.32,1.91-3.14,3.8-5.34,5.55-2.23,1.77-4.82,3.39-7.63,4.74-2.81,1.34-5.81,2.4-8.84,3.06-1.57.34-3.06.56-4.46.65-1.39.1-2.68.08-3.87-.05-1.18-.12-2.25-.35-3.2-.67-.94-.32-1.76-.73-2.46-1.22l-1.46-1.14-1.22-1.1s-.83-.81-1.31-1.37c-.34-.4-.84-1.06-.84-1.06-.09-.1,0,0,0,0,.56.64,1.25,1.2,2.12,1.65,1.02.54,2.23.94,3.62,1.18,1.41.25,3,.34,4.75.26,1.77-.09,3.69-.35,5.73-.81,3.29-.74,6.55-1.9,9.62-3.37,3.06-1.47,5.89-3.22,8.33-5.13,2.41-1.89,4.4-3.91,5.84-5.94,1.41-1.99,2.28-3.98,2.48-5.84.02-.2.04-.4.04-.59,0-.19-.02-.4-.04-.58-.02-.2.24.85.24.85,0,0,.15.92.21,1.52"/></g></svg>