<?xml version="1.0" encoding="utf-8"?>
<!-- Generator: Adobe Illustrator 26.5.0, SVG Export Plug-In . SVG Version: 6.00 Build 0)  -->
<svg version="1.1" id="Ebene_1" xmlns="http://www.w3.org/2000/svg" xmlns:xlink="http://www.w3.org/1999/xlink" x="0px" y="0px"
	 viewBox="0 0 141.73 276.72" style="enable-background:new 0 0 141.73 276.72;" xml:space="preserve">
<style type="text/css">
	.st0{fill:#FFFFFF;}
	.st1{fill-rule:evenodd;clip-rule:evenodd;fill:#EC1D26;}
</style>
<rect x="0" class="st0" width="141.73" height="276.72"/>
<rect x="6.75" y="141.74" class="st1" width="128.23" height="128.24"/>
<rect x="6.75" y="6.75" class="st1" width="128.23" height="128.23"/>
<path class="st0" d="M33.79,107.99h20.25V60.75H33.79V107.99z M43.87,32.4c-6.34,0-11.47,5.14-11.47,11.47s5.14,11.47,11.47,11.47
	s11.47-5.14,11.47-11.47S50.21,32.4,43.87,32.4z M87.74,33.75V54h20.24V33.75H87.74z M60.74,107.99h20.25V33.75H60.74V107.99z
	 M87.74,80.99h20.24V60.75H87.74V80.99z"/>
<g>
	<g>
		<path class="st0" d="M29.19,168.79c6.18,0,10.79,2.6,10.79,9.73c0,6.75-4.74,9.57-10.79,9.57h-5v-19.3H29.19z M27.88,185.13h0.97
			c4.06,0,7.31-1.69,7.31-6.63c0-5.2-3.25-6.66-7.31-6.66h-0.97V185.13z"/>
		<path class="st0" d="M43.44,168.79h10.82V172h-7.18v4.64h6.6v3.12h-6.6v5.09h7.26v3.23h-10.9V168.79z"/>
		<path class="st0" d="M67.94,172.3c-1.44-0.61-2.59-0.83-3.72-0.83c-1.94,0-3.17,0.86-3.17,2.19c0,1.19,0.6,1.93,3.3,2.96
			c3.41,1.27,4.85,2.93,4.85,5.78c0,3.71-2.67,6.03-6.89,6.03c-1.75,0-3.33-0.28-4.85-0.83l0.34-3.4c1.57,0.8,3.01,1.11,4.3,1.11
			c1.94,0,3.33-0.86,3.33-2.4c0-1.47-0.76-2.24-3.54-3.32c-3.25-1.24-4.64-2.79-4.64-5.53c0-3.43,2.65-5.59,6.55-5.59
			c1.62,0,2.99,0.19,4.43,0.69L67.94,172.3z"/>
		<path class="st0" d="M72.5,168.79h3.69v19.3H72.5V168.79z"/>
		<path class="st0" d="M94.82,172.8c-1.13-0.61-2.96-1.08-4.85-1.08c-3.88,0-6.39,2.57-6.39,6.66c0,4.01,2.28,6.69,6.31,6.69
			c0.76,0,1.57-0.08,2.15-0.28v-4.81h-3.9v-3.1h7.41v10.37c-1.96,0.72-4.06,1.02-6.16,1.02c-5.61,0-9.77-3.76-9.77-9.93
			c0-6,4.03-9.76,10.38-9.76c1.81,0,3.59,0.19,5.08,0.75L94.82,172.8z"/>
		<path class="st0" d="M111.49,168.79h3.33v19.3h-4.66l-4.69-9.46c-0.94-1.91-2.15-4.67-2.65-5.95h-0.05
			c0.08,1.19,0.13,4.73,0.13,6.39v9.01h-3.33v-19.3h4.92l4.61,9.54c0.68,1.38,1.94,4.29,2.49,5.64h0.05
			c-0.08-1.41-0.16-5.14-0.16-7.08V168.79z"/>
	</g>
	<g>
		<path class="st0" d="M40.77,215.55h-4.01l-1.6-4.45h-7.62l-1.6,4.45h-3.8l7.18-19.3h4.16L40.77,215.55z M32.65,203.66
			c-0.39-1.16-1.02-3.37-1.26-4.37h-0.05c-0.26,0.99-0.94,3.21-1.34,4.37l-1.52,4.51h5.68L32.65,203.66z"/>
		<path class="st0" d="M54,202.64c-0.18-0.88-0.55-2.57-0.68-3.62h-0.05c-0.13,1.05-0.42,2.71-0.6,3.62l-2.73,12.91h-4.66
			l-5.06-19.3h3.96l2.65,11.56c0.13,0.63,0.71,3.43,0.87,4.73h0.05c0.18-1.3,0.71-4.09,0.84-4.73l2.38-11.56h4.9l2.52,11.56
			c0.16,0.66,0.65,3.46,0.84,4.73h0.05c0.18-1.27,0.71-4.01,0.87-4.73l2.62-11.56h3.67l-4.9,19.3h-4.64L54,202.64z"/>
		<path class="st0" d="M84.4,215.55h-4.01l-1.6-4.45h-7.62l-1.6,4.45h-3.8l7.18-19.3h4.17L84.4,215.55z M76.27,203.66
			c-0.39-1.16-1.02-3.37-1.26-4.37h-0.05c-0.26,0.99-0.94,3.21-1.34,4.37l-1.52,4.51h5.69L76.27,203.66z"/>
		<path class="st0" d="M86.86,196.25h5.29c4.51,0,7.49,1.02,7.49,5.06c0,2.54-1.44,4.06-3.82,4.56v0.05
			c1.28,0.36,1.76,1.13,2.33,2.57l2.83,7.05h-4.06l-2.04-5.47c-0.76-2.02-1.1-2.54-3.35-2.54h-0.97v8.02h-3.7V196.25z M90.56,204.55
			h1.07c2.91,0,4.22-0.77,4.22-2.71c0-2.1-1.57-2.54-4.22-2.54h-1.07V204.55z"/>
		<path class="st0" d="M109.16,196.25c6.18,0,10.79,2.6,10.79,9.73c0,6.75-4.74,9.57-10.79,9.57h-5v-19.3H109.16z M107.85,212.59
			h0.97c4.06,0,7.31-1.69,7.31-6.63c0-5.2-3.25-6.66-7.31-6.66h-0.97V212.59z"/>
	</g>
</g>
<g>
	<path class="st0" d="M23.66,243.7v-3.22c1.79-1.73,8.3-7.18,8.3-10.7c0-1.76-1.57-2.58-3.13-2.58c-1.62,0-3.16,0.71-4.43,1.54
		l-0.3-3.19c1.73-0.88,3.74-1.38,5.69-1.38c3.66,0,6.02,1.84,6.02,5.61c0,4.07-4.1,7.81-7.23,10.89h7.84v3.02H23.66z"/>
	<path class="st0" d="M39.17,234.15c0-4.81,1.46-9.98,6.65-9.98c5.61,0,6.71,5.53,6.71,9.98c0,4.45-1.15,9.87-6.71,9.87
		C39.92,244.03,39.17,238.17,39.17,234.15z M48.69,234.15c0-2.47,0-7.12-2.86-7.12c-2.8,0-2.8,4.65-2.8,7.12
		c0,2.42-0.03,7.01,2.8,7.01C48.71,241.17,48.69,236.57,48.69,234.15z"/>
	<path class="st0" d="M55.01,243.7v-3.22c1.79-1.73,8.3-7.18,8.3-10.7c0-1.76-1.57-2.58-3.13-2.58c-1.62,0-3.16,0.71-4.43,1.54
		l-0.3-3.19c1.73-0.88,3.74-1.38,5.69-1.38c3.66,0,6.02,1.84,6.02,5.61c0,4.07-4.1,7.81-7.23,10.89h7.84v3.02H55.01z"/>
	<path class="st0" d="M70,236.6l7.18-12.1h4.78v12.35h2.45v2.86h-2.45v3.99h-3.68v-3.99H70V236.6z M78.28,236.85v-8.33h-0.06
		l-4.76,8.33H78.28z"/>
</g>
</svg>
