<?xml version="1.0" encoding="UTF-8"?>
<svg id="a" data-name="Layer 1" xmlns="http://www.w3.org/2000/svg" viewBox="0 0 128 128">
  <defs>
    <style>
      .b {
        fill: #fff;
      }

      .c {
        fill: #1a171b;
      }
    </style>
  </defs>
  <rect class="b" width="128" height="128"/>
  <g>
    <g>
      <path class="c" d="M58.48,52.12c-1.56-2-4.69-2.94-7.07-2.94-2.75,0-6.57,1.25-6.57,4.57,0,8.07,20.39,2.88,20.39,18.38,0,9.88-7.94,14.57-17.07,14.57-5.69,0-10.69-1.69-14.88-5.57l6.94-7.63c2,2.62,5.25,4.19,8.5,4.19s6.76-1.5,6.76-4.63c0-8.13-20.76-3.75-20.76-18.51,0-9.44,8.19-14.38,16.89-14.38,5,0,9.82,1.31,13.57,4.63l-6.69,7.32Z"/>
      <path class="c" d="M85.18,74.45c3.19,0,5.75,2.56,5.75,5.75s-2.56,5.75-5.75,5.75-5.75-2.56-5.75-5.75,2.56-5.75,5.75-5.75ZM89.87,70.95h-9.38v-29.64h9.38v29.64Z"/>
    </g>
    <path class="c" d="M120.49,120.36H7.48V7.35h113.01v113.01ZM14.43,113.41h99.11V14.29H14.43v99.11Z"/>
  </g>
</svg>