<?xml version="1.0" encoding="UTF-8"?>
<svg id="Layer_1" xmlns="http://www.w3.org/2000/svg" version="1.1" viewBox="0 0 128 128">
  <!-- Generator: Adobe Illustrator 29.5.1, SVG Export Plug-In . SVG Version: 2.1.0 Build 141)  -->
  <defs>
    <style>
      .st0 {
        fill: #fff;
      }

      .st1 {
        fill: #1a171b;
      }
    </style>
  </defs>
  <rect class="st0" x="0" y=".1" width="128" height="128"/>
  <g>
    <g>
      <path class="st1" d="M58.8,52.8c-1.5-1.9-4.6-2.9-6.9-2.9s-6.4,1.2-6.4,4.4c0,7.9,19.8,2.8,19.8,17.9s-7.7,14.2-16.6,14.2-10.4-1.6-14.5-5.4l6.8-7.4c1.9,2.6,5.1,4.1,8.3,4.1s6.6-1.5,6.6-4.5c0-7.9-20.2-3.6-20.2-18s8-14,16.4-14,9.6,1.3,13.2,4.5l-6.5,7.1Z"/>
      <path class="st1" d="M84.8,74.6c3.1,0,5.6,2.5,5.6,5.6s-2.5,5.6-5.6,5.6-5.6-2.5-5.6-5.6,2.5-5.6,5.6-5.6ZM89.4,71.2h-9.1v-28.9h9.1v28.9Z"/>
    </g>
    <path class="st1" d="M119.2,119.2H9.2V9.2h110v110ZM16,112.5h96.5V16H16v96.5Z"/>
  </g>
</svg>