<?xml version="1.0" encoding="UTF-8"?>
<svg id="Ebene_1" xmlns="http://www.w3.org/2000/svg" version="1.1" viewBox="0 0 42.5 42.5">
  <!-- Generator: Adobe Illustrator 29.5.1, SVG Export Plug-In . SVG Version: 2.1.0 Build 141)  -->
  <defs>
    <style>
      .st0 {
        font-family: AvenirNextLTPro-Regular, 'Avenir Next LT Pro';
        font-size: 23.8px;
        letter-spacing: 0em;
      }

      .st1 {
        font-family: Inter-SemiBold, Inter;
        font-size: 23.3px;
        font-weight: 600;
        letter-spacing: 0em;
      }

      .st2 {
        fill: #1a171b;
      }
    </style>
  </defs>
  <g>
    <path class="st2" d="M-71.2,85.8c-.5-.6-1.4-.9-2.2-.9s-2,.4-2,1.4c0,2.5,6.3.9,6.3,5.7s-2.4,4.5-5.2,4.5-3.3-.5-4.6-1.7l2.1-2.3c.6.8,1.6,1.3,2.6,1.3s2.1-.5,2.1-1.4c0-2.5-6.4-1.2-6.4-5.7s2.5-4.4,5.2-4.4,3,.4,4.2,1.4l-2.1,2.3Z"/>
    <path class="st2" d="M-66.8,82.5h9.3v2.8h-6.3v2.5h5.9v2.8h-5.9v2.8h6.6v2.8h-9.6v-13.6Z"/>
    <path class="st2" d="M-54.7,82.5h3v10.8h5.6v2.8h-8.6v-13.6h0Z"/>
    <path class="st2" d="M-44.5,82.5h3v13.6h-3v-13.6Z"/>
    <path class="st2" d="M-29.9,86c-.6-.7-1.5-1.1-2.6-1.1-2.3,0-3.9,1.8-3.9,4.4s1.7,4.4,3.8,4.4,2.2-.5,2.8-1.5l2.5,1.9c-1.1,1.6-3.1,2.4-4.9,2.4-4.2,0-7.3-2.8-7.3-7.2s3.1-7.2,7.3-7.2,3.4.5,4.6,2l-2.3,1.9Z"/>
    <path class="st2" d="M-19.9,82.5h3v13.6h-3v-13.6Z"/>
    <path class="st2" d="M-14.2,82.5h4.1l5.8,9.5h0v-9.5H-1.3v13.6h-3.9l-5.9-9.7h0v9.7h-3v-13.6h0Z"/>
    <path class="st2" d="M1.5,82.5h4.5c4.4,0,8.1,1.9,8.1,6.8s-3.6,6.8-7.7,6.8H1.5v-13.6h0ZM4.5,93.3h1.6c2.8,0,4.9-1.1,4.9-4.2s-2.1-3.9-4.7-3.9h-1.8v8.1h0Z"/>
    <path class="st2" d="M27.5,90.8c0,3.2-2,5.6-5.7,5.6s-5.8-2.4-5.8-5.6v-8.4h3v8.2c0,1.7,1.2,2.9,2.8,2.9s2.7-1.3,2.7-2.9v-8.2h3v8.4Z"/>
    <path class="st2" d="M37,85.8c-.5-.6-1.4-.9-2.2-.9s-2,.4-2,1.4c0,2.5,6.3.9,6.3,5.7s-2.4,4.5-5.2,4.5-3.3-.5-4.6-1.7l2.1-2.3c.6.8,1.6,1.3,2.6,1.3s2.1-.5,2.1-1.4c0-2.5-6.4-1.2-6.4-5.7s2.5-4.4,5.2-4.4,3,.4,4.2,1.4l-2.1,2.3Z"/>
    <path class="st2" d="M44,85.1h-3.9v-2.7h10.8v2.7h-3.9v11h-3v-11h0Z"/>
    <path class="st2" d="M52.4,82.5h5.3c2.8,0,5.1,1,5.1,4.1s-1,3.4-2.9,3.7l3.5,5.8h-3.6l-2.8-5.4h-1.5v5.4h-3v-13.6ZM55.4,88.1h1.8c1.1,0,2.5,0,2.5-1.5s-1.2-1.6-2.3-1.6h-2v3.1Z"/>
    <path class="st2" d="M64.8,82.5h3v13.6h-3v-13.6Z"/>
    <path class="st2" d="M70.6,82.5h9.3v2.8h-6.2v2.5h5.9v2.8h-5.9v2.8h6.6v2.8h-9.6v-13.6Z"/>
    <path class="st2" d="M82.6,82.5h4.5c4.4,0,8.1,1.9,8.1,6.8s-3.6,6.8-7.7,6.8h-4.9v-13.6ZM85.6,93.3h1.6c2.8,0,4.9-1.1,4.9-4.2s-2.1-3.9-4.7-3.9h-1.8v8.1h0Z"/>
    <path class="st2" d="M97.3,82.5h9.3v2.8h-6.3v2.5h5.9v2.8h-5.9v2.8h6.6v2.8h-9.6v-13.6h0Z"/>
    <path class="st2" d="M116.1,85.8c-.5-.6-1.4-.9-2.2-.9s-2,.4-2,1.4c0,2.5,6.3.9,6.3,5.7s-2.4,4.5-5.2,4.5-3.3-.5-4.6-1.7l2.1-2.3c.6.8,1.6,1.3,2.6,1.3s2.1-.5,2.1-1.4c0-2.5-6.4-1.2-6.4-5.7s2.5-4.4,5.2-4.4,3,.4,4.2,1.4l-2.1,2.3Z"/>
    <path class="st2" d="M120.3,82.5h3v13.6h-3v-13.6Z"/>
    <path class="st2" d="M138.4,95.1c-1.8.9-3.7,1.3-5.7,1.3-4.3,0-7.3-2.8-7.3-7.2s3.1-7.2,7.3-7.2,4.1.5,5.4,1.8l-2.1,2.3c-.8-.8-1.8-1.3-3.3-1.3-2.6,0-4.2,1.8-4.2,4.4s1.7,4.4,4.2,4.4,2.3-.4,2.8-.7v-2.2h-2.4v-2.8h5.3v7.1h0Z"/>
    <path class="st2" d="M141,82.5h4.1l5.8,9.5h0v-9.5h3v13.6h-3.9l-5.9-9.7h0v9.7h-3v-13.6Z"/>
  </g>
  <g>
    <g>
      <path class="st2" d="M19.2,16.8c-.6-.8-1.8-1.1-2.7-1.1s-2.5.5-2.5,1.7c0,3,7.7,1.1,7.7,6.9s-3,5.5-6.4,5.5-4-.6-5.6-2.1l2.6-2.9c.8,1,2,1.6,3.2,1.6s2.5-.6,2.5-1.7c0-3.1-7.8-1.4-7.8-7s3.1-5.4,6.4-5.4,3.7.5,5.1,1.7l-2.5,2.8Z"/>
      <path class="st2" d="M29.2,25.2c1.2,0,2.2,1,2.2,2.2s-1,2.2-2.2,2.2-2.2-1-2.2-2.2,1-2.2,2.2-2.2ZM31,23.9h-3.5v-11.2h3.5v11.2Z"/>
    </g>
    <path class="st2" d="M42.5,42.5H0V0h42.5v42.5ZM2.6,39.9h37.3V2.6H2.6v37.3Z"/>
  </g>
  <text class="st0" transform="translate(-101.3 -87.9)"><tspan x="0" y="0">SELIĆ INDUSTRIEDESIGN</tspan></text>
  <g>
    <path d="M-78.7,60.8c-.7-.9-1.9-1.4-3-1.4s-2.3.4-2.3,1.7,1,1.5,2.6,2c2.3.7,5.2,1.7,5.2,5s-3.1,5.5-6.4,5.5-4.8-.9-6.2-2.4l2.6-2.7c.8,1,2.3,1.8,3.6,1.8s2.3-.5,2.3-1.8-1.3-1.7-3.5-2.4c-2.1-.7-4.3-1.8-4.3-4.8s3.3-5.2,6.4-5.2,4,.7,5.5,2l-2.6,2.7Z"/>
    <path d="M-73.8,73.1v-16.6h11.2v3.4h-7.3v3.1h6.9v3.2h-6.9v3.5h7.7v3.4h-11.6Z"/>
    <path d="M-59.8,73.1v-16.6h4v13.1h6.4v3.5h-10.5Z"/>
    <path d="M-47.7,73.1v-16.6h4v16.6h-4Z"/>
    <path d="M-32.3,73.5c-5.1,0-9-3.6-9-8.8s3.9-8.7,9-8.7,4.8.8,6.2,2.4l-2.7,2.7c-.8-1-2.1-1.5-3.4-1.5-2.8,0-4.8,2.2-4.8,5.1s2,5.1,4.7,5.1,2.8-.7,3.5-1.7l2.8,2.6c-1.5,1.7-3.7,2.7-6.5,2.7ZM-31.5,55.1h-2.9l2.4-3.4h3.9l-3.4,3.4Z"/>
  </g>
  <g>
    <path d="M-15.6,73.1v-16.6h4v16.6h-4Z"/>
    <path d="M2.2,73.1l-6.7-10.9h0v10.9c0,0-3.8,0-3.8,0v-16.6H-3.8l6.7,10.9h0v-10.9c0,0,3.8,0,3.8,0v16.6H2.2Z"/>
    <path d="M16.1,73.1h-6.2v-16.6h6c4.7,0,9.5,2,9.5,8.3s-4.7,8.4-9.3,8.4ZM15.9,59.9h-2v9.7h1.9c2.9,0,5.5-1.2,5.5-4.9s-2.7-4.8-5.4-4.8Z"/>
    <path d="M34.8,73.5c-4.4,0-7.1-2.7-7.1-6.7v-10.4h4v10c0,1.8.9,3.4,3.1,3.4s3.1-1.6,3.1-3.4v-10h4v10.4c0,4-2.8,6.7-7.2,6.7Z"/>
    <path d="M53.8,60.8c-.7-.9-1.9-1.4-3-1.4s-2.3.4-2.3,1.7,1,1.5,2.6,2c2.3.7,5.2,1.7,5.2,5s-3.1,5.5-6.4,5.5-4.8-.9-6.2-2.4l2.6-2.7c.8,1,2.3,1.8,3.6,1.8s2.3-.5,2.3-1.8-1.3-1.7-3.5-2.4c-2.1-.7-4.3-1.8-4.3-4.8s3.3-5.2,6.4-5.2,4,.7,5.5,2l-2.6,2.7Z"/>
    <path d="M65.4,59.9v13.2h-4v-13.2h-4.7v-3.4h13.4v3.4h-4.7Z"/>
    <path d="M80.6,73.1l-3.6-6.6h-1.4v6.6h-3.9v-16.6h6.3c3.2,0,6.4,1.2,6.4,5s-1.3,3.8-3.5,4.5l4.3,7.1h-4.7ZM77.8,59.7h-2.1v3.9h1.9c1.3,0,2.9-.3,2.9-2s-1.5-1.9-2.7-1.9Z"/>
    <path d="M87.1,73.1v-16.6h4v16.6h-4Z"/>
    <path d="M94.3,73.1v-16.6h11.2v3.4h-7.3v3.1h6.9v3.2h-6.9v3.5h7.7v3.4h-11.6Z"/>
    <path d="M114.6,73.1h-6.2v-16.6h6c4.7,0,9.5,2,9.5,8.3s-4.7,8.4-9.3,8.4ZM114.3,59.9h-2v9.7h1.9c2.9,0,5.5-1.2,5.5-4.9s-2.7-4.8-5.4-4.8Z"/>
    <path d="M126.3,73.1v-16.6h11.2v3.4h-7.3v3.1h6.9v3.2h-6.9v3.5h7.7v3.4h-11.6Z"/>
    <path d="M149.1,60.8c-.7-.9-1.9-1.4-3-1.4s-2.3.4-2.3,1.7,1,1.5,2.6,2c2.3.7,5.2,1.7,5.2,5s-3.1,5.5-6.4,5.5-4.8-.9-6.2-2.4l2.6-2.7c.8,1,2.3,1.8,3.6,1.8s2.3-.5,2.3-1.8-1.3-1.7-3.5-2.4c-2.1-.7-4.3-1.8-4.3-4.8s3.3-5.2,6.4-5.2,4,.7,5.5,2l-2.6,2.7Z"/>
    <path d="M154,73.1v-16.6h4v16.6h-4Z"/>
    <path d="M169.6,73.5c-5.3,0-9.1-3.5-9.1-8.8s3.9-8.7,9-8.7,5,.9,6.4,2.2l-2.5,2.9c-.8-.9-2.1-1.6-3.7-1.6-2.8,0-4.9,2.2-4.9,5.2s1.8,5.2,5.1,5.2,1.8-.1,2.5-.4v-3h-3.2v-3.2h6.9v8.8c-1.6.8-3.9,1.4-6.4,1.4Z"/>
    <path d="M189.6,73.1l-6.7-10.9h0v10.9c0,0-3.8,0-3.8,0v-16.6h4.6l6.7,10.9h0v-10.9c0,0,3.8,0,3.8,0v16.6h-4.6Z"/>
  </g>
  <g>
    <path d="M-79.6-131.5c-2,0-3.5-.5-4.7-1.4s-1.8-2.2-1.9-3.9h3c0,.9.4,1.6,1.1,2,.7.4,1.5.7,2.4.7s1.8-.2,2.5-.7c.6-.5,1-1,1-1.8s-.3-1.2-.8-1.5c-.6-.3-1.3-.6-2.2-.9l-1.9-.5c-1.4-.4-2.5-.9-3.3-1.6-.8-.7-1.2-1.7-1.2-2.9s.3-1.9.8-2.6,1.3-1.3,2.2-1.7c.9-.4,2-.6,3.2-.6s2.3.2,3.2.6c.9.4,1.6,1,2.1,1.7.5.7.8,1.6.8,2.5h-2.9c0-.7-.4-1.3-1-1.7-.6-.4-1.3-.6-2.2-.6s-1.7.2-2.3.6c-.5.4-.8,1-.8,1.6s.1.9.4,1.2c.3.3.7.5,1.1.7s.9.3,1.3.4l1.6.4c.8.2,1.6.5,2.4.9.8.4,1.4.9,1.9,1.5.5.6.7,1.5.7,2.4s-.3,1.9-.8,2.6c-.5.8-1.2,1.3-2.2,1.8s-2.1.6-3.5.6Z"/>
    <path d="M-70.6-131.7v-17h11v2.6h-8v4.6h7.4v2.5h-7.4v4.7h8v2.6h-11.1Z"/>
    <path d="M-56.7-131.7v-17h3v14.4h7.5v2.6h-10.5Z"/>
    <path d="M-40.8-148.7v17h-3v-17h3Z"/>
    <path d="M-30.4-131.5c-1.5,0-2.8-.3-4-1-1.2-.7-2.1-1.7-2.8-3-.7-1.3-1-2.9-1-4.7s.3-3.4,1-4.7,1.6-2.3,2.8-3c1.2-.7,2.5-1,4-1s2.4.2,3.4.7c1,.5,1.8,1.1,2.5,2,.7.9,1.1,1.9,1.3,3.2h-3.1c-.2-1-.7-1.8-1.4-2.3s-1.6-.8-2.6-.8-2.5.5-3.4,1.6-1.3,2.5-1.3,4.4.4,3.4,1.3,4.4c.9,1,2,1.5,3.4,1.5s1.9-.3,2.6-.8c.7-.5,1.2-1.3,1.4-2.3h3.1c-.2,1.1-.5,2.1-1.2,3-.6.9-1.4,1.6-2.5,2.1-1,.5-2.2.8-3.5.8ZM-31.5-150.3l1.6-3.5h2.9l-2.3,3.5h-2.2Z"/>
  </g>
  <g>
    <path d="M-11-148.7v17h-3v-17h3Z"/>
    <path d="M-7.9-131.7v-17h3.4l5.9,9.3c.3.5.6,1.1,1,1.7s.7,1.4,1.1,2.2c0-.8-.1-1.6-.1-2.4,0-.8,0-1.5,0-2v-8.9h3.1v17h-3.4l-5.3-8.4c-.3-.5-.6-.9-.8-1.4-.3-.5-.5-1-.8-1.5-.3-.5-.6-1.2-1-1.9,0,1,.1,2,.1,2.8s0,1.5,0,2v8.4h-3.1Z"/>
    <path d="M15.3-131.7h-5.7v-17h5.8c1.7,0,3.1.3,4.3,1,1.2.7,2.1,1.6,2.8,2.9.6,1.3,1,2.8,1,4.5s-.3,3.3-1,4.6-1.6,2.2-2.8,2.9-2.7,1-4.4,1ZM12.6-134.4h2.5c3.6,0,5.4-2,5.4-5.9s-1.8-5.8-5.3-5.8h-2.6v11.7Z"/>
    <path d="M33.1-131.5c-1.4,0-2.6-.3-3.6-.8-1-.5-1.8-1.2-2.4-2.2-.6-.9-.9-2-.9-3.2v-11.1h3v10.8c0,1.1.3,1.9,1,2.6.7.7,1.6,1,2.8,1s2.1-.3,2.8-1c.7-.7,1-1.6,1-2.6v-10.8h3v11.1c0,1.2-.3,2.3-.9,3.2-.6.9-1.4,1.6-2.4,2.2s-2.2.8-3.6.8Z"/>
    <path d="M49.1-131.5c-2,0-3.5-.5-4.7-1.4-1.2-.9-1.8-2.2-1.9-3.9h3c0,.9.4,1.6,1.1,2,.7.4,1.5.7,2.4.7s1.8-.2,2.5-.7c.6-.5.9-1,.9-1.8s-.3-1.2-.8-1.5c-.6-.3-1.3-.6-2.2-.9l-1.9-.5c-1.4-.4-2.5-.9-3.3-1.6-.8-.7-1.2-1.7-1.2-2.9s.3-1.9.8-2.6c.5-.7,1.3-1.3,2.2-1.7.9-.4,2-.6,3.2-.6s2.3.2,3.2.6c.9.4,1.6,1,2.1,1.7.5.7.8,1.6.8,2.5h-2.9c0-.7-.4-1.3-1-1.7-.6-.4-1.3-.6-2.2-.6s-1.7.2-2.3.6-.8,1-.8,1.6.1.9.4,1.2c.3.3.7.5,1.1.7.4.2.9.3,1.3.4l1.6.4c.8.2,1.6.5,2.4.9.8.4,1.4.9,1.9,1.5.5.6.7,1.5.7,2.4s-.3,1.9-.8,2.6c-.5.8-1.2,1.3-2.2,1.8s-2.1.6-3.5.6Z"/>
    <path d="M57.3-146.1v-2.6h13.5v2.6h-5.2v14.4h-3v-14.4h-5.2Z"/>
    <path d="M73.2-131.7v-17h6.3c1.9,0,3.4.5,4.4,1.5,1,1,1.5,2.3,1.5,3.9s-.3,2.1-.8,3c-.5.8-1.3,1.4-2.3,1.8l3.7,6.7h-3.4l-3.3-6.2h-3.2v6.2h-3ZM76.2-140.5h2.9c1.1,0,2-.2,2.5-.7.5-.5.8-1.2.8-2.1s-.3-1.6-.8-2.1c-.5-.5-1.4-.8-2.5-.8h-2.8v5.7Z"/>
    <path d="M91.2-148.7v17h-3v-17h3Z"/>
    <path d="M94.4-131.7v-17h11v2.6h-8v4.6h7.4v2.5h-7.4v4.7h8v2.6h-11.1Z"/>
    <path d="M114-131.7h-5.7v-17h5.8c1.7,0,3.1.3,4.3,1,1.2.7,2.1,1.6,2.8,2.9.6,1.3,1,2.8,1,4.5s-.3,3.3-1,4.6-1.6,2.2-2.8,2.9-2.7,1-4.4,1ZM111.3-134.4h2.5c3.6,0,5.4-2,5.4-5.9s-1.8-5.8-5.3-5.8h-2.6v11.7Z"/>
    <path d="M124.8-131.7v-17h11v2.6h-8v4.6h7.4v2.5h-7.4v4.7h8v2.6h-11.1Z"/>
    <path d="M144.7-131.5c-2,0-3.5-.5-4.7-1.4-1.2-.9-1.8-2.2-1.9-3.9h3c0,.9.4,1.6,1.1,2,.7.4,1.5.7,2.4.7s1.8-.2,2.5-.7c.6-.5.9-1,.9-1.8s-.3-1.2-.8-1.5c-.6-.3-1.3-.6-2.2-.9l-1.9-.5c-1.4-.4-2.5-.9-3.3-1.6-.8-.7-1.2-1.7-1.2-2.9s.3-1.9.8-2.6c.5-.7,1.3-1.3,2.2-1.7.9-.4,2-.6,3.2-.6s2.3.2,3.2.6c.9.4,1.6,1,2.1,1.7.5.7.8,1.6.8,2.5h-2.9c0-.7-.4-1.3-1-1.7-.6-.4-1.3-.6-2.2-.6s-1.7.2-2.3.6-.8,1-.8,1.6.1.9.4,1.2c.3.3.7.5,1.1.7.4.2.9.3,1.3.4l1.6.4c.8.2,1.6.5,2.4.9.8.4,1.4.9,1.9,1.5.5.6.7,1.5.7,2.4s-.3,1.9-.8,2.6c-.5.8-1.2,1.3-2.2,1.8s-2.1.6-3.5.6Z"/>
    <path d="M156.7-148.7v17h-3v-17h3Z"/>
    <path d="M167.2-131.5c-1.6,0-2.9-.4-4.1-1.1-1.2-.7-2.1-1.7-2.8-3-.7-1.3-1-2.8-1-4.6s.3-3.4,1-4.7c.7-1.3,1.6-2.3,2.8-3s2.5-1,4-1,2.4.2,3.4.7,1.8,1.1,2.5,2c.7.8,1.1,1.8,1.2,2.9h-3.1c-.3-.9-.7-1.6-1.4-2.1-.7-.5-1.5-.8-2.6-.8s-1.7.2-2.4.7c-.7.5-1.3,1.1-1.7,2-.4.9-.6,2-.6,3.3,0,1.9.4,3.4,1.3,4.4s2,1.6,3.5,1.6,2.3-.4,3-1.1c.8-.7,1.2-1.7,1.2-2.9h-3.9v-2.4h6.9v2c0,1.4-.3,2.7-.9,3.8-.6,1.1-1.5,1.9-2.5,2.4-1.1.6-2.3.9-3.7.9Z"/>
    <path d="M177.1-131.7v-17h3.4l5.9,9.3c.3.5.6,1.1,1,1.7s.7,1.4,1.1,2.2c0-.8-.1-1.6-.1-2.4,0-.8,0-1.5,0-2v-8.9h3.1v17h-3.4l-5.3-8.4c-.3-.5-.6-.9-.8-1.4-.3-.5-.5-1-.8-1.5-.3-.5-.6-1.2-1-1.9,0,1,.1,2,.1,2.8,0,.8,0,1.5,0,2v8.4h-3.1Z"/>
  </g>
  <text class="st1" transform="translate(-89.8 -31.2)"><tspan x="0" y="0">SELIĆ INDUSTRIEDESIGN</tspan></text>
</svg>