<?xml version="1.0" encoding="utf-8"?>
<!-- Generator: Adobe Illustrator 27.9.0, SVG Export Plug-In . SVG Version: 6.00 Build 0)  -->
<svg version="1.1" id="Layer_1" xmlns="http://www.w3.org/2000/svg" xmlns:xlink="http://www.w3.org/1999/xlink" x="0px" y="0px"
	 viewBox="0 0 423.49 307.28" style="enable-background:new 0 0 423.49 307.28;" xml:space="preserve">
<style type="text/css">
	.st0{fill:#A46A33;}
	.st1{fill:#EAD7C8;}
	.st2{fill:#BD8D63;}
	.st3{fill:#D4B194;}
</style>
<g>
	<path class="st0" d="M257.87,76.28c0,3.41-2.44,5.94-6.53,5.94h-8.5V61.59h7.1c3.66,0,5.88,2.22,5.88,5.22c0,1.72-0.72,3.13-2,4.06
		C256.4,71.63,257.87,73.66,257.87,76.28z M245.27,63.78v6.41h4.41c2.41,0,3.63-1.31,3.63-3.22s-1.22-3.19-3.63-3.19H245.27z
		 M255.37,76.22c0-2.22-1.5-3.81-4.28-3.81h-5.82v7.63h5.82C253.87,80.04,255.37,78.47,255.37,76.22z"/>
	<path class="st0" d="M274.26,82.22l-6.41-8.66h-4.41v8.66H261V61.59h7.25c4.06,0,6.6,2.5,6.6,5.97c0,2.78-1.63,4.94-4.31,5.72
		l6.57,8.94H274.26z M263.44,71.38h4.72c2.72,0,4.16-1.56,4.16-3.78c0-2.19-1.44-3.81-4.16-3.81h-4.72V71.38z"/>
	<path class="st0" d="M299.12,71.91c0,6.03-4.81,10.66-10.72,10.66c-5.97,0-10.69-4.66-10.69-10.66c0-6.03,4.75-10.66,10.69-10.66
		C294.3,61.25,299.12,65.87,299.12,71.91z M280.23,71.88c0,4.81,3.47,8.44,8.19,8.44c4.66,0,8.16-3.63,8.16-8.44
		c0-4.75-3.5-8.38-8.16-8.38C283.7,63.5,280.23,67.09,280.23,71.88z"/>
	<path class="st0" d="M318.66,61.59v20.98h-0.88l-13.13-15.85v15.51h-2.44V61.25h0.88l13.13,15.88V61.59H318.66z"/>
	<path class="st0" d="M338.39,80.04v2.19h-16.35v-0.72l12.47-17.73h-11.13v-2.19h14.98v0.72l-12.51,17.73H338.39z"/>
	<path class="st0" d="M354.74,63.78h-10.79v6.32h8.25v2.19h-8.25v7.75h11.16v2.19h-13.6V61.59h13.23V63.78z"/>
	<path class="st0" d="M265.81,106.1h-10.07l-1.78,4.19h-2.56l8.94-20.98h0.91l8.94,20.98h-2.6L265.81,106.1z M260.78,93.78
		l-4.13,10.13h8.25L260.78,93.78z"/>
	<path class="st0" d="M298.83,89.65l-7.82,20.98h-0.88l-6.53-16.38l-6.53,16.38h-0.88l-7.85-20.98h2.69l5.69,15.73l6.44-16.07h0.88
		l6.44,16.07l5.69-15.73H298.83z"/>
	<path class="st0" d="M311.44,106.1h-10.07l-1.78,4.19h-2.56l8.94-20.98h0.91l8.94,20.98h-2.6L311.44,106.1z M306.4,93.78
		l-4.13,10.13h8.25L306.4,93.78z"/>
	<path class="st0" d="M331.95,110.29l-6.41-8.66h-4.41v8.66h-2.44V89.65h7.25c4.06,0,6.6,2.5,6.6,5.97c0,2.78-1.63,4.94-4.31,5.72
		l6.57,8.94H331.95z M321.13,99.44h4.72c2.72,0,4.16-1.56,4.16-3.78c0-2.19-1.44-3.81-4.16-3.81h-4.72V99.44z"/>
	<path class="st0" d="M354.87,99.94c0,5.91-4.22,10.35-11.22,10.35h-6.13V89.65h6.13C350.65,89.65,354.87,93.94,354.87,99.94z
		 M339.95,91.84v16.26h3.66c5.53,0,8.72-3.53,8.72-8.16c0-4.72-3.19-8.1-8.72-8.1H339.95z"/>
	<path class="st0" d="M304.24,136.16v2.19h-14.35v-0.63l7.35-7.82c2.22-2.31,3.63-4,3.63-6.16c0-2.19-1.47-4.13-3.97-4.13
		c-2.59,0-4.13,2.03-4.13,4.25c0,0.47,0.06,1.16,0.19,1.72h-2.5c-0.16-0.59-0.22-1.28-0.22-1.81c0-3.19,2.47-6.41,6.66-6.41
		c3.81,0,6.5,2.72,6.5,6.25c0,3-1.94,5.19-4.31,7.72l-4.56,4.81H304.24z"/>
	<path class="st0" d="M321.38,127.84c0,5.88-2.22,10.85-7.53,10.85c-5.35,0-7.57-4.97-7.57-10.85c0-6,2.34-10.47,7.57-10.47
		C319.07,117.37,321.38,121.84,321.38,127.84z M308.81,127.87c0,4.91,1.41,8.57,5.03,8.57c3.66,0,5-3.66,5-8.57
		c0-4.88-1.34-8.25-5-8.25C310.19,119.62,308.81,123,308.81,127.87z"/>
	<path class="st0" d="M338.01,136.16v2.19h-14.35v-0.63l7.35-7.82c2.22-2.31,3.63-4,3.63-6.16c0-2.19-1.47-4.13-3.97-4.13
		c-2.59,0-4.13,2.03-4.13,4.25c0,0.47,0.06,1.16,0.19,1.72h-2.5c-0.16-0.59-0.22-1.28-0.22-1.81c0-3.19,2.47-6.41,6.66-6.41
		c3.81,0,6.5,2.72,6.5,6.25c0,3-1.94,5.19-4.31,7.72l-4.56,4.81H338.01z"/>
	<path class="st0" d="M355.68,134.5h-3v3.85h-2.44v-3.85h-10.35v-0.69l6.78-16.1h2.5l-6.19,14.66h7.25v-6.88h2.44v6.88h3V134.5z"/>
</g>
<polygon class="st1" points="261.14,274.12 80.7,274.12 170.92,183.9 "/>
<path class="st2" d="M200.72,53.36c-24.79-24.8-64.95-24.87-89.84-0.22l0,0L80.86,83.16l90.06,90.06l30.02-30.02
	C225.58,118.31,225.51,78.16,200.72,53.36z"/>
<polygon class="st3" points="296.34,178.56 266.32,148.54 236.3,178.56 206.28,148.54 176.26,178.56 266.32,268.62 356.37,178.56 
	326.36,148.54 "/>
<rect x="84.32" y="84.86" transform="matrix(0.7071 -0.7071 0.7071 0.7071 -74.1181 118.1343)" class="st0" width="42.45" height="127.36"/>
</svg>
