<svg id="Ebene_1" data-name="Ebene 1" xmlns="http://www.w3.org/2000/svg" viewBox="0 0 141.73 276.72"><defs><style>.cls-1{fill:#fff;}.cls-2{fill:#ec1d26;}</style></defs><rect class="cls-1" width="141.73" height="276.72"/><rect class="cls-2" x="6.75" y="141.74" width="128.23" height="128.24"/><rect class="cls-2" x="6.75" y="6.75" width="128.23" height="128.23"/><path class="cls-1" d="M33.79,108H54V60.75H33.79ZM43.87,32.4A11.48,11.48,0,1,0,55.34,43.87,11.47,11.47,0,0,0,43.87,32.4Zm43.87,1.35V54H108V33.75ZM60.74,108H81V33.75H60.74Zm27-27H108V60.75H87.74Z"/><path class="cls-1" d="M29.19,168.79c6.18,0,10.79,2.6,10.79,9.74,0,6.74-4.74,9.56-10.79,9.56h-5v-19.3Zm-1.31,16.34h1c4.06,0,7.31-1.68,7.31-6.63,0-5.2-3.25-6.67-7.31-6.67h-1Z"/><path class="cls-1" d="M43.44,168.79H54.26V172H47.08v4.64h6.61v3.13H47.08v5.09h7.26v3.23H43.44Z"/><path class="cls-1" d="M67.94,172.3a9.38,9.38,0,0,0-3.72-.83c-1.94,0-3.17.86-3.17,2.19s.6,1.93,3.3,3c3.41,1.27,4.85,2.93,4.85,5.78,0,3.7-2.67,6-6.89,6a13.73,13.73,0,0,1-4.85-.83l.34-3.4a9.31,9.31,0,0,0,4.3,1.11c1.94,0,3.33-.86,3.33-2.41s-.76-2.24-3.54-3.31c-3.25-1.25-4.64-2.8-4.64-5.53,0-3.43,2.65-5.59,6.55-5.59a12.9,12.9,0,0,1,4.43.69Z"/><path class="cls-1" d="M72.5,168.79h3.7v19.3H72.5Z"/><path class="cls-1" d="M94.82,172.8A10.83,10.83,0,0,0,90,171.72c-3.88,0-6.4,2.57-6.4,6.67s2.28,6.69,6.32,6.69a7.09,7.09,0,0,0,2.15-.28V180H88.14v-3.1h7.42v10.37a17.91,17.91,0,0,1-6.16,1c-5.61,0-9.77-3.76-9.77-9.93,0-6,4-9.76,10.37-9.76a14.82,14.82,0,0,1,5.09.75Z"/><path class="cls-1" d="M111.49,168.79h3.33v19.3h-4.67l-4.69-9.45c-.94-1.91-2.14-4.68-2.64-5.95h-.06c.08,1.19.14,4.73.14,6.39v9H99.57v-19.3h4.92l4.61,9.54c.69,1.38,1.94,4.29,2.49,5.64h.06c-.08-1.41-.16-5.14-.16-7.08Z"/><path class="cls-1" d="M40.77,215.55h-4l-1.6-4.45H27.54l-1.6,4.45h-3.8l7.18-19.3h4.17Zm-8.12-11.89c-.4-1.16-1-3.37-1.26-4.37h-.05c-.26,1-.94,3.21-1.34,4.37l-1.52,4.51h5.69Z"/><path class="cls-1" d="M54,202.64c-.18-.89-.55-2.57-.68-3.62h0c-.13,1-.42,2.71-.6,3.62l-2.73,12.91H45.28l-5.06-19.3h4l2.64,11.56c.13.63.71,3.43.87,4.73h.05c.18-1.3.71-4.1.84-4.73L51,196.25h4.9l2.52,11.56c.16.66.65,3.45.84,4.73h.05c.18-1.28.71-4,.86-4.73l2.62-11.56h3.67l-4.9,19.3H56.88Z"/><path class="cls-1" d="M84.4,215.55h-4l-1.6-4.45H71.16l-1.59,4.45h-3.8L73,196.25h4.16Zm-8.13-11.89c-.39-1.16-1-3.37-1.25-4.37H75c-.26,1-.94,3.21-1.33,4.37l-1.52,4.51h5.68Z"/><path class="cls-1" d="M86.86,196.25h5.29c4.51,0,7.5,1,7.5,5.06a4.34,4.34,0,0,1-3.83,4.56v.06c1.28.36,1.76,1.13,2.33,2.57l2.83,7.05H96.92l-2-5.47c-.76-2-1.1-2.55-3.36-2.55h-1v8h-3.7Zm3.7,8.3h1.07c2.91,0,4.22-.78,4.22-2.71,0-2.1-1.57-2.55-4.22-2.55H90.56Z"/><path class="cls-1" d="M109.16,196.25c6.18,0,10.79,2.6,10.79,9.73,0,6.75-4.74,9.57-10.79,9.57h-5v-19.3Zm-1.31,16.34h1c4.06,0,7.31-1.69,7.31-6.63,0-5.2-3.25-6.67-7.31-6.67h-1Z"/><path class="cls-1" d="M24,225.28a13.83,13.83,0,0,1,5.62-1.11c3.48,0,6.45,1.76,6.45,5.46,0,2.37-1.11,4.5-4.59,7.77a30.45,30.45,0,0,1-3.75,3v.06c1.7-.06,3.91-.08,5.58-.08h3.16v2.94H23.66v-3.13c6.05-4.92,8.48-7.48,8.48-10.18,0-2.05-1.49-2.89-3.38-2.89a8.79,8.79,0,0,0-4.34,1.27Z"/><path class="cls-1" d="M52.82,233.86c0,6.1-2,9.8-6.85,9.8S39,240,39,234.08c0-6.72,2.24-9.91,7.07-9.91C50.55,224.17,52.82,227.41,52.82,233.86Zm-10-.1c0,4.75,1.11,7.12,3.14,7.12S49,238.51,49,233.94s-1.1-7-3.1-7S42.83,229.25,42.83,233.76Z"/><path class="cls-1" d="M55.33,225.28a13.78,13.78,0,0,1,5.61-1.11c3.48,0,6.45,1.76,6.45,5.46,0,2.37-1.11,4.5-4.59,7.77a29,29,0,0,1-3.75,3v.06c1.7-.06,3.91-.08,5.59-.08H67.8v2.94H55v-3.13c6-4.92,8.47-7.48,8.47-10.18,0-2.05-1.48-2.89-3.37-2.89a8.79,8.79,0,0,0-4.35,1.27Z"/><path class="cls-1" d="M73.46,235.05v-2.81c.29,0,.62.06.91.06,3.19,0,5-.84,5-2.7,0-1.68-1.46-2.59-3.62-2.59a10.37,10.37,0,0,0-4.35.94l-.24-3a15.14,15.14,0,0,1,5.13-.81c4.24,0,6.8,1.84,6.8,4.92,0,2.51-1.78,4-4.48,4.37v.08c2.83.3,4.72,2.05,4.72,4.62,0,3.4-3.21,5.5-7.77,5.5a16.53,16.53,0,0,1-4.94-.7l.19-3.16a12.23,12.23,0,0,0,4.56,1c2.38,0,4.13-.86,4.13-2.88S77.64,235,74.4,235C74.18,235,73.78,235,73.46,235.05Z"/></svg>